<?xml version="1.0" standalone="no"?>
<!DOCTYPE svg PUBLIC "-//W3C//DTD SVG 1.1//EN" "http://www.w3.org/Graphics/SVG/1.1/DTD/svg11.dtd" >
<!--
2013-9-30: Created.
-->
<svg>
<metadata>
Created by iconfont
</metadata>
<defs>

<font id="iconfont" horiz-adv-x="1024" >
  <font-face
    font-family="iconfont"
    font-weight="500"
    font-stretch="normal"
    units-per-em="1024"
    ascent="896"
    descent="-128"
  />
    <missing-glyph />
    
    <glyph glyph-name="x" unicode="x" horiz-adv-x="1001"
d="M281 543q-27 -1 -53 -1h-83q-18 0 -36.5 -6t-32.5 -18.5t-23 -32t-9 -45.5v-76h912v41q0 16 -0.5 30t-0.5 18q0 13 -5 29t-17 29.5t-31.5 22.5t-49.5 9h-133v-97h-438v97zM955 310v-52q0 -23 0.5 -52t0.5 -58t-10.5 -47.5t-26 -30t-33 -16t-31.5 -4.5q-14 -1 -29.5 -0.5
t-29.5 0.5h-32l-45 128h-439l-44 -128h-29h-34q-20 0 -45 1q-25 0 -41 9.5t-25.5 23t-13.5 29.5t-4 30v167h911zM163 247q-12 0 -21 -8.5t-9 -21.5t9 -21.5t21 -8.5q13 0 22 8.5t9 21.5t-9 21.5t-22 8.5zM316 123q-8 -26 -14 -48q-5 -19 -10.5 -37t-7.5 -25t-3 -15t1 -14.5
t9.5 -10.5t21.5 -4h37h67h81h80h64h36q23 0 34 12t2 38q-5 13 -9.5 30.5t-9.5 34.5q-5 19 -11 39h-368zM336 498v228q0 11 2.5 23t10 21.5t20.5 15.5t34 6h188q31 0 51.5 -14.5t20.5 -52.5v-227h-327z" />
    

    
    <glyph glyph-name="msnui-cate" unicode="&#58901;" d="M270.928 834c-208.928 0-208.928 0-208.928 0v-208.928c0 0 0-208.928 208.928-208.928s208.928 0 208.928 0v208.928c0 0 0 208.928-208.928 208.928zM415.572 480.428h-144.643c-135.698 0-144.297 120.848-144.643 144.643v144.643h144.643c135.698 0 144.297-120.848 144.643-144.643v-144.643zM753.072 834c0 0-208.928 0-208.928-208.928s0-208.928 0-208.928h208.928c0 0 208.928 0 208.928 208.928s0 208.928 0 208.928h-208.928zM897.714 625.072c0-135.698-120.848-144.297-144.643-144.643h-144.643v144.643c0 135.697 120.848 144.297 144.643 144.643h144.643v-144.643zM753.072 351.858c-208.928 0-208.928 0-208.928 0v-208.928c0 0 0-208.928 208.928-208.928s208.928 0 208.928 0v208.928c0 0 0 208.928-208.928 208.928zM897.714-1.714h-144.643c-135.698 0-144.297 120.848-144.643 144.643v144.643h144.643c135.697 0 144.297-120.848 144.643-144.643v-144.643zM62 142.928c0-208.928 0-208.928 0-208.928h208.928c0 0 208.928 0 208.928 208.928s0 208.928 0 208.928h-208.928c0 0-208.928 0-208.928-208.928zM415.572 142.928c0-135.697-120.848-144.297-144.643-144.643h-144.643v144.643c0 135.698 120.848 144.297 144.643 144.643h144.643v-144.643z"  horiz-adv-x="1024" />

    
    <glyph glyph-name="weixin" unicode="&#58886;" d="M703.884238 444.721079c-0.901533 4.194532-1.563612 8.215102-2.636037 12.124132-14.06432 51.237965-43.231617 92.877317-83.402525 126.600373-65.046459 54.605665-141.058666 81.050967-225.557152 81.97706-112.306832 1.231037-207.27067-36.526915-277.741675-127.317711C60.879556 468.964226 52.609195 364.750723 94.762247 288.327146c21.849634-39.613206 52.413743-71.278393 88.591711-97.752348 8.159844-5.970992 11.45182-10.781554 7.216355-21.570271-8.673543-22.095227-15.244192-45.017286-22.636556-67.61291-1.315972-4.024663-2.417049-8.118911-4.342912-14.633279 34.597983 17.371646 66.027809 33.715893 98.049107 48.805566 7.293103 3.437286 17.051351 4.759397 24.955368 3.261277 41.782615-7.92039 83.45676-15.654538 126.349663-10.859325C363.356588 298.988973 516.02671 463.429163 703.884238 444.721079zM504.589217 531.227292c23.944342-0.233314 38.654368-15.401782 38.642089-39.84652-0.01228-24.238031-14.919804-39.203884-39.102576-39.254026-26.119891-0.054235-47.619554 17.458627-47.939849 39.051411C455.860399 513.255988 477.894228 531.487212 504.589217 531.227292zM282.930861 452.122653c-27.375487-0.403183-48.667419 16.778128-48.729841 39.321564-0.061398 22.285562 20.214391 39.46278 46.87868 39.71349 24.009833 0.226151 39.912012-15.07637 40.145325-38.633902C321.466526 468.169117 306.587654 452.470577 282.930861 452.122653zM912.387993 331.329543c-43.957141 50.703799-100.100836 81.129762-165.848259 91.330078-100.998275 15.668865-192.289468-6.621814-263.773546-82.883709-58.226123-62.117756-73.77219-136.483464-42.814108-216.760812 28.350698-73.515341 86.202291-116.523877 159.010527-140.862191 58.422597-19.529799 117.466342-18.642592 176.429245-1.957585 10.015098 2.834558 18.463514 1.896186 27.719318-3.515057 23.328311-13.639648 47.322795-26.13831 74.002434-40.707121-7.093559 23.344684-12.170181 43.729967-19.609617 63.21474-4.7727 12.500709-0.985444 18.701944 8.445346 26.696012 17.024745 14.431687 33.689287 29.746488 48.092321 46.736441C981.526653 152.229468 980.724381 252.507336 912.387993 331.329543zM607.447862 237.28975c-17.059538 0.50756-32.102139 16.115026-31.648814 32.834826 0.452301 16.649192 16.197914 31.127951 33.519418 30.823006 20.73116-0.364297 37.639249-14.803147 37.4571-31.987528C646.590348 251.384769 628.317169 236.668603 607.447862 237.28975zM782.626627 237.160813c-16.621563 0.141216-32.451086 16.053628-32.272008 32.441876 0.178055 16.314571 16.198937 31.455409 33.183773 31.361265 20.379143-0.113587 38.009685-14.658861 38.163181-31.487132C821.85814 252.391702 803.230897 236.985828 782.626627 237.160813z"  horiz-adv-x="1024" />

    
    <glyph glyph-name="gengduo" unicode="&#58913;" d="M76.165704 734.510138c-17.692964 0-32.05609-14.364149-32.05609-32.158421l0-317.166593c0-18.028609 14.364149-32.219819 32.05609-32.219819l346.800517 0c17.886369 0 32.260751 14.20042 32.260751 32.219819L455.226972 702.351718c0 17.794271-14.364149 32.158421-32.260751 32.158421L76.165704 734.510138zM76.165704 240.984908c-17.692964 0-32.05609-14.364149-32.05609-32.158421l0-317.166593c0-18.028609 14.364149-32.219819 32.05609-32.219819l346.800517 0c17.886369 0 32.260751 14.201443 32.260751 32.219819L455.226972 208.826488c0 17.794271-14.364149 32.158421-32.260751 32.158421L76.165704 240.984908zM600.078011 240.984908c-17.692964 0-32.05609-14.364149-32.05609-32.158421l0-317.166593c0-18.028609 14.364149-32.219819 32.05609-32.219819l346.800517 0c17.886369 0 32.260751 14.201443 32.260751 32.219819L979.13928 208.826488c0 17.794271-14.364149 32.158421-32.260751 32.158421L600.078011 240.984908zM946.878528 734.510138 600.078011 734.510138c-17.692964 0-32.05609-14.364149-32.05609-32.158421l0-317.166593c0-18.028609 14.364149-32.219819 32.05609-32.219819l346.800517 0c17.886369 0 32.260751 14.20042 32.260751 32.219819L979.13928 702.351718C979.13928 720.145989 964.764897 734.510138 946.878528 734.510138zM890.614084 453.47137c0-10.261715-8.184403-18.34481-18.364253-18.34481L674.788573 435.12656c-10.06831 0-18.252713 8.083096-18.252713 18.34481l0 180.582845c0 10.128685 8.184403 18.314111 18.252713 18.314111l197.460234 0c10.190083 0 18.364253-8.184403 18.364253-18.314111L890.61306 453.47137z"  horiz-adv-x="1024" />

    
    <glyph glyph-name="weixiupaidan" unicode="&#58924;" d="M844.262918 525.313605 696.805518 377.869508c-32.301683-32.299637-79.618339-24.777313-103.97405-0.388856l-1.90028 1.90028c-24.388457 24.372084-16.633842 56.408731 15.668865 88.695065L751.782643 613.291332c-111.730711 68.682265-222.554772 46.987151-305.039391-35.495422-74.383104-74.382081-98.553597-181.206038-56.845683-268.047896l6.636141-6.619768-210.688513-210.67214c-36.56887-36.58422-37.942147-82.014922-1.341554-118.599142l2.833535-2.818185c36.56887-36.585243 97.247858-50.491974 133.816728-13.906731l201.341634 201.311958c93.322455-42.00365 208.445426-25.791409 285.789978 51.551096C893.912711 295.60797 893.413338 439.15634 844.262918 525.313605zM783.833617 234.462355c-73.200162-73.166393-186.300057-82.777285-271.739984-33.157167-1.12359-1.198292 1.806135-6.337335 0.623193-7.523347L312.898895-6.033022c-32.051997-32.024367-79.08622-24.281009-103.506399 0.091074l-1.86958 1.901303c-24.388457 24.372084-16.883529 56.189743 15.136745 88.226391l199.849654 199.804628c1.992377 2.0241 0.405229 7.427156 2.492774 9.250688-42.48665 83.789335-27.004027 186.904831 43.045375 256.974699 61.238736 61.223387 156.89433 71.563896 228.194212 52.610218l-126.9616-126.94625c-36.628222-36.600593-37.938054-82.013899-1.369184-118.597095l2.805906-2.820232c36.5965-36.583197 97.275487-50.507324 133.875057-13.906731l130.883933 130.869606C856.161922 401.917204 848.433914 299.096421 783.833617 234.462355z"  horiz-adv-x="1024" />

    
    <glyph glyph-name="you" unicode="&#59098;" d="M642.174253 307.40582C650.164439 300.164713 650.070886 289.825747 641.84009 282.623802L332.618569 12.05497C323.751654 4.296418 322.853148-9.181184 330.611697-18.048098 338.370249-26.915012 351.847851-27.813519 360.714765-20.05497L669.936288 250.513862C697.36486 274.513862 697.727953 314.641139 670.825747 339.021263L360.992414 619.807722C352.26205 627.719614 338.770837 627.056111 330.858944 618.325748 322.947053 609.595384 323.610556 596.104171 332.340919 588.192277L642.174253 307.40582Z"  horiz-adv-x="1024" />

    
    <glyph glyph-name="weibo" unicode="&#58908;" d="M899.370003 424.735909c0-11.473309-8.856715-20.765953-19.767206-20.765953-10.909467 0-19.751856 9.293667-19.751856 20.765953 0 1.038656 0.145309 2.046612 0.287549 3.050476l-0.287549 0c0 108.091834-83.538625 195.704241-186.570209 195.704241-1.955538 0-3.859911-0.251733-5.816472-0.302899l0 0.605797c-9.532097 1.49198-16.85283 10.044774-16.85283 20.463054 0 10.416234 7.319709 18.955724 16.85283 20.447704l0 0.017396c0.049119 0 0.112564 0 0.158612 0 0.899486 0.135076 1.812275 0.285502 2.755764 0.285502 0.305969 0 0.610914-0.066515 0.912789-0.083911 0.611937 0.033769 1.217734 0.083911 1.843998 0.083911 124.947733 0 226.234581-106.213044 226.234581-237.21875l-0.305969 0C899.210367 426.781498 899.370003 425.774565 899.370003 424.735909zM783.407921 403.968933c-10.908444 0-19.751856 9.293667-19.751856 20.765953 0 2.750647 0.529049 5.382591 1.458211 7.78122-2.308579 49.66719-40.319288 89.406263-87.753623 91.620697-2.176572-0.873903-4.516874-1.39272-6.982018-1.39272-10.906397 0-19.767206 9.292644-19.767206 20.74958 0 10.432607 7.319709 18.971074 16.85283 20.463054l0 0c0.049119 0 0.095167 0.01842 0.144286 0.01842 0.914836 0.13303 1.826602 0.283456 2.771113 0.283456 0.305969 0 0.610914-0.083911 0.912789-0.099261 0.611937 0.049119 1.217734 0.099261 1.843998 0.099261 71.810512 0 130.038682-61.10673 130.038682-136.474254l-0.301875 0c0.145309-1.004887 0.301875-2.01182 0.301875-3.050476C803.174104 413.2626 794.317389 403.968933 783.407921 403.968933zM699.61347 350.29243c15.826454 1.99647 33.238009 1.12359 52.783157-4.027733 54.094012-14.275121 75.721589-50.823526 73.349565-106.48115-2.4017-56.714699-62.153572-158.248164-151.505599-212.542744-59.607586-40.056298-137.396253-67.785849-218.162742-67.785849-170.84097 0-331.447854 104.050798-331.447854 232.388744 0 1.693572 0.160659 3.40454 0.232291 5.101181 0 0.064468 0.008186 0.13303 0.008186 0.183172 0.119727 2.449795 0.272199 4.898567 0.544399 7.349385C135.867946 331.55467 334.302367 533.346559 393.700175 539.419881c55.440683 5.668093 114.549919-12.782118 109.85806-82.008782-0.354064-5.199419-1.506307-10.769274-2.979868-16.489556 44.388976 26.621311 96.625688 45.239344 143.641491 36.182061C708.806853 464.674527 724.538139 400.362802 699.61347 350.29243zM441.30745 328.435633c-128.087237 0-231.890394-71.943542-231.890394-160.710238 0-88.750323 103.803157-160.695912 231.890394-160.695912 128.055514 0 231.874021 71.945589 231.874021 160.695912C673.182494 256.49209 569.362964 328.435633 441.30745 328.435633zM415.8875 48.627902c-67.13605 0-121.537054 50.6424-121.537054 113.089661 0 62.451354 54.401004 113.089661 121.537054 113.089661 67.134003 0 121.55138-50.637284 121.55138-113.089661C537.43888 99.271326 483.021503 48.627902 415.8875 48.627902zM401.709593 173.510144c-21.914102 0-39.661302-18.60166-39.661302-41.530882 0-22.930245 17.747199-41.518602 39.661302-41.518602 21.913079 0 39.678698 18.588357 39.678698 41.518602C441.388291 154.909507 423.622672 173.510144 401.709593 173.510144z"  horiz-adv-x="1024" />

    
    <glyph glyph-name="sousuo" unicode="&#59147;" d="M863.895552 23.416576 724.955136 164.287232c38.122496 54.04672 60.84608 119.975936 60.84608 191.343616 0 181.94432-145.934336 329.905152-325.383168 329.905152-179.45088 0-325.383168-147.960832-325.383168-329.905152s145.932288-329.904128 325.383168-329.904128c69.95456 0 134.653952 22.7072 187.746304 60.918784l139.101184-141.034496c10.5216-10.661888 32.703488-12.919808 43.278336-2.250752l38.341632 38.873088C879.401984-6.99008 874.471424 12.637952 863.895552 23.416576L863.895552 23.416576zM182.042624 357.167872c0 157.517824 124.053504 285.672448 276.528128 285.672448 152.481792 0 276.528128-128.154624 276.528128-285.672448 0-157.522944-124.04736-285.672448-276.528128-285.672448C306.096128 71.496448 182.042624 199.644928 182.042624 357.167872L182.042624 357.167872z"  horiz-adv-x="1024" />

    
    <glyph glyph-name="shouyefuben" unicode="&#59060;" d="M959.065082 227.358563 513.263783 672.001479l-0.249687-0.25071-0.144286 0.145309L64.676022 229.665095l28.748764-29.136597 99.396801 98.073666 0.128937-365.432877 20.470217 0.007163 0-0.067538 226.966245 0.01535 0 1.010003 0 39.922245 0 1.010003 0 12.655228L440.386986 224.834067l143.226029 0 0-240.86479 0-8.902764 0-0.99977 0-39.932478 0-0.99977 216.551034 0.014326 0 0.017396 30.776957 0.011256-0.128937 364.289843 99.347682-99.089809L959.065082 227.358563zM789.878798 299.299035l0.11461-325.220013-165.448146-0.011256L624.545262 265.766314 399.454738 265.766314l0-291.711851-165.586292-0.011256-0.11461 325.271178-40.225143-0.014326 319.43731 315.187519 315.995931-315.174216L789.878798 299.299035z"  horiz-adv-x="1024" />

    
    <glyph glyph-name="weixinzhifu" unicode="&#58922;" d="M390.21952 264.90752c-61.26464-34.01984-70.35136 19.09888-70.35136 19.09888l-76.78208 178.46656c-29.54368 84.80512 25.56928 38.23744 25.56928 38.23744s47.2896-35.63392 83.17952-57.34784c35.87072-21.71392 76.75776-6.3744 76.75776-6.3744l501.9648 230.7776C837.94688 782.5472 684.96256 857.6 511.76576 857.6 229.11104 857.6 0 657.86752 0 411.47136c0-141.72544 75.8656-267.8656 194.0352-349.62176l-21.31072-122.01856c0 0-10.38848-35.6224 25.61536-19.10016 24.53376 11.26528 87.0784 51.63392 124.30976 76.20224 58.53056-20.31616 122.2976-31.5968 189.14432-31.5968 282.63168 0 511.79008 199.73248 511.79008 446.13376 0 71.36896-19.31008 138.76864-53.51552 198.59456C810.14144 514.2208 438.15808 291.48288 390.21952 264.90752L390.21952 264.90752 390.21952 264.90752zM390.21952 264.90752"  horiz-adv-x="1024" />

    
    <glyph glyph-name="04" unicode="&#58888;" d="M511.193635 896c-281.853319 0-511.172145-229.318826-511.172145-511.172145 0-122.9441 44.262086-241.750973 124.655068-334.530053 97.223299-112.271016 238.114143-176.642093 386.517077-176.642093 281.853319 0 511.172145 229.318826 511.172145 511.172145S793.046954 896 511.193635 896zM511.193635-77.661521c-109.490693 0-214.055191 39.274492-296.768007 108.639303 21.999037 146.970306 147.913794 256.483512 297.956066 256.483512 148.259672 0 273.390577-105.971543 297.566186-251.972778 0.13917-0.844228 0.651846-1.497097 0.871857-2.307555C730.023572-35.768389 625.484657-77.661521 511.193635-77.661521zM511.193635 336.145086c-89.593528 0-162.475442 72.881914-162.475442 162.450882 0 89.593528 72.881914 162.475442 162.475442 162.475442 89.568968 0 162.450882-72.881914 162.450882-162.475442C673.644517 409.027 600.762603 336.145086 511.193635 336.145086zM851.710029 72.958918C821.72511 191.017754 733.565235 282.304853 621.191888 318.719204c60.540841 37.158295 101.135398 103.775528 101.135398 179.876764 0 116.430756-94.703919 211.158211-211.134675 211.158211s-211.158211-94.727455-211.158211-211.158211c0-76.508511 41.041742-143.431713 102.128005-180.469258C289.565978 280.910087 201.836915 188.329529 172.708504 70.534705c-3.678786 3.959172-7.682983 7.538697-11.234879 11.640108-72.715115 83.935668-112.769366 191.404308-112.769366 302.653041 0 255.016091 207.473285 462.489376 462.489376 462.489376S973.683011 639.842922 973.683011 384.827855C973.683011 264.598586 927.181931 155.293111 851.710029 72.958918z"  horiz-adv-x="1024" />

    
    <glyph glyph-name="shouye" unicode="&#58897;" d="M730.402195 15.943366 293.632597 15.943366c-97.240695 0-123.57548 33.3035-123.57548 137.02377L170.057117 449.945945c0 14.601556 11.485589 26.437116 25.703405 26.437116 14.182001 0 25.666566-11.835559 25.666566-26.437116l0-296.979832c0-75.531254 3.048429-84.182284 72.205509-84.182284l436.769598 0c69.122287 0 81.939197 8.651031 81.939197 84.182284L812.341393 449.945945c0 14.601556 11.520381 26.437116 25.701358 26.437116 14.183024 0 25.703405-11.835559 25.703405-26.437116l0-296.979832C863.746156 49.246867 827.643913 15.943366 730.402195 15.943366L730.402195 15.943366zM527.442714 704.519967 103.526865 376.585123c-4.624321-3.605108-10.04989-5.322216-15.443737-5.322216-7.77508 0-15.47853 3.640923-20.520359 10.5421-8.544607 11.658528-6.26775 28.220738 5.078669 36.976146l423.916872 327.968613c11.344373 8.755408 27.452235 6.445806 35.96205-5.216815C541.063943 729.873402 538.78811 713.309144 527.442714 704.519967L527.442714 704.519967zM956.436208 381.805008c-5.04183-6.9022-12.744255-10.5421-20.519336-10.5421-5.392824 0-10.819416 1.716084-15.442714 5.28947l-423.914826 327.96759c-11.345396 8.7902-13.622252 25.317619-5.079692 36.978193 8.54563 11.660574 24.65247 13.9712 35.963073 5.251607l423.915849-327.968613C962.703959 409.994024 964.981838 393.463536 956.436208 381.805008L956.436208 381.805008z"  horiz-adv-x="1024" />

    
    <glyph glyph-name="a536" unicode="&#58988;" d="M111.332 535.004c0.856 2.452 1.736 4.896 2.562 7.358 6.672 19.874 24.038 33.182 45.198 34.626 19.21 1.312 38.572-9.972 47.528-27.7 9.134-18.080 6.53-39.486-6.722-55.158-1.506-1.78-3.058-3.52-4.864-5.596 37.39-22.886 74.444-45.572 111.502-68.248 14.072-8.61 28.094-17.3 42.26-25.752 7.956-4.748 14.176-3.34 18.542 4.6 42.624 77.518 85.116 155.108 128.024 233.364-18.638 9.428-30.496 23.754-31.582 45.1-0.758 14.91 4.478 27.81 15.174 38.238 21.070 20.542 55.532 18.512 73.964-4.2 21.122-26.030 13.57-56.476-20.132-79.45 11.012-20.092 22.048-40.244 33.098-60.388 30.844-56.228 61.69-112.454 92.544-168.676 7.132-12.994 11.72-14.238 24.272-6.556 47.796 29.248 95.584 58.508 143.37 87.774 2.188 1.34 4.322 2.766 6.866 4.398-9.828 9.826-16.1 21.080-16.852 34.81-1.414 25.784 16.244 48.242 41.138 52.538 25.798 4.452 49.798-10.266 57.442-35.206 0.606-1.976 1.332-3.918 2.002-5.874 0-5.768 0-11.534 0-17.302-8.162-25.996-24.816-41.144-53.422-41.38-0.98-2.962-2.052-5.888-2.922-8.872-27.97-95.954-55.922-191.914-83.878-287.872-3.636-12.476-8.004-15.856-20.658-15.858-160.936-0.018-321.872-0.030-482.81-0.032-13.506 0-17.762 3.202-21.446 15.86-22.67 77.876-45.338 155.752-68.030 233.62-6.14 21.072-12.362 42.12-18.558 63.22-21.372 0.016-37.538 8.434-47.674 26.986-2.464 4.51-3.984 9.538-5.938 14.328 0.002 5.766 0.002 11.532 0.002 17.3zM513.99 113.422c75.222 0 150.444 0.054 225.666-0.036 20.12-0.024 36.188-14.206 38.414-33.378 2.228-19.198-10.502-36.862-29.84-41.202-2.78-0.624-5.708-0.812-8.568-0.812-150.444-0.036-300.888-0.052-451.332-0.002-17.198 0.006-31.546 10.256-36.674 25.716-5.136 15.486-0.428 33.012 13.412 41.77 7.11 4.5 16.462 7.574 24.83 7.638 74.694 0.576 149.394 0.336 224.092 0.336 0-0.012 0-0.020 0-0.030z"  horiz-adv-x="1024" />

    
    <glyph glyph-name="saoyisao" unicode="&#58953;" d="M864 848l-697.6 0c-48 0-83.2-41.6-83.2-89.6l0-208c0-12.8 9.6-25.6 22.4-25.6s22.4 9.6 22.4 25.6l0 208c0 22.4 16 41.6 38.4 41.6l697.6 0c22.4 0 38.4-19.2 38.4-41.6l0-208c0-12.8 9.6-25.6 22.4-25.6s22.4 9.6 22.4 25.6l0 208C947.2 806.4 908.8 848 864 848zM924.8 214.4c-12.8 0-22.4-9.6-22.4-25.6l0-179.2c0-22.4-16-41.6-38.4-41.6l-697.6 0c-22.4 0-38.4 19.2-38.4 41.6L128 192c0 12.8-9.6 25.6-22.4 25.6s-22.4-9.6-22.4-25.6l0-179.2c0-51.2 38.4-89.6 83.2-89.6l697.6 0c48 0 83.2 41.6 83.2 89.6L947.2 192C947.2 204.8 937.6 214.4 924.8 214.4zM921.6 352c12.8 0 22.4 9.6 22.4 22.4 0 12.8-9.6 22.4-22.4 22.4l-819.2 0c-12.8 0-22.4-9.6-22.4-22.4 0-12.8 9.6-22.4 22.4-22.4L921.6 352z"  horiz-adv-x="1024" />

    
    <glyph glyph-name="xiaoxizhongxin" unicode="&#58981;" d="M585.6-9.6 585.6-9.6c25.6 32 38.4 44.8 41.6 44.8 208 38.4 345.6 198.4 345.6 396.8 3.2 227.2-204.8 406.4-460.8 406.4s-464-179.2-464-406.4c0-198.4 140.8-358.4 345.6-396.8 3.2 0 16-12.8 41.6-44.8l0 0c32-41.6 51.2-64 73.6-64S550.4-51.2 585.6-9.6M620.8 92.8c-19.2-3.2-32-19.2-67.2-64l0 0c-22.4-25.6-41.6-44.8-41.6-44.8l-9.6 9.6c-6.4 6.4-16 19.2-25.6 32-38.4 48-51.2 64-70.4 67.2-185.6 32-307.2 172.8-307.2 345.6 0 192 185.6 352 416 352s416-160 416-352C928 262.4 806.4 124.8 620.8 92.8zM281.6 425.6a1.4 1.5 0 1 0 89.6 0 1.4 1.5 0 1 0-89.6 0ZM467.2 425.6a1.4 1.5 0 1 0 89.6 0 1.4 1.5 0 1 0-89.6 0ZM652.8 425.6a1.4 1.5 0 1 0 89.6 0 1.4 1.5 0 1 0-89.6 0Z"  horiz-adv-x="1024" />

    
    <glyph glyph-name="huo" unicode="&#58989;" d="M336-76.8c-60.8 128-28.8 201.6 19.2 268.8 51.2 76.8 64 150.4 64 150.4s41.6-51.2 25.6-134.4c70.4 80 83.2 208 73.6 256 160-112 230.4-358.4 137.6-537.6 492.8 281.6 121.6 700.8 57.6 745.6 22.4-48 25.6-128-19.2-166.4-73.6 281.6-256 336-256 336 22.4-144-76.8-300.8-172.8-419.2-3.2 57.6-6.4 96-38.4 153.6-6.4-105.6-86.4-188.8-108.8-294.4C89.6 137.6 140.8 35.2 336-76.8L336-76.8z"  horiz-adv-x="1024" />

    
    <glyph glyph-name="zhifubao" unicode="&#58921;" d="M1023.648242 194.722129 1023.648242 698.503779c0 108.597339-88.13141 196.728749-196.792705 196.728749L197.080507 895.232528C88.483168 895.232528 0.351758 807.101118 0.351758 698.503779l0-629.77503c0-108.597339 88.067454-196.728749 196.728749-196.728749l629.77503 0c96.765474 0 177.286116 69.967897 193.722816 162.000625-52.188121 22.576479-278.336644 120.237337-396.143651 176.454687-89.666354-108.597339-183.553807-173.768534-325.088502-173.768534s-235.997752 87.172069-224.677534 193.850728C82.151521 300.569359 130.1825 415.050653 338.80707 395.416151 448.747486 385.119231 499.080882 364.589345 588.747236 334.977703c23.216039 42.53076 42.466804 89.346574 57.112735 139.168322L248.245331 474.146025 248.245331 513.542939l196.728749 0L444.97408 584.278309 205.011055 584.278309 205.011055 627.640497l239.963025 0L444.97408 729.714321c0 0 2.174505 15.989008 19.826369 15.989008L563.164824 745.703329l0-118.062832 255.824121 0 0-43.362188-255.824121 0L563.164824 513.542939l208.688527 0c-19.186809-78.090313-48.286803-149.848979-84.74174-212.525888C747.741927 279.080132 1023.648242 194.722129 1023.648242 194.722129L1023.648242 194.722129 1023.648242 194.722129zM283.676972 104.224346c-149.529199 0-173.19293 94.399101-165.262382 133.859971 7.866592 39.269003 51.164824 90.497783 134.307663 90.497783 95.550309 0 181.123478-24.431204 283.836862-74.444819C464.416714 160.185872 375.773656 104.224346 283.676972 104.224346L283.676972 104.224346z"  horiz-adv-x="1024" />

    
    <glyph glyph-name="weixuanzhong" unicode="&#58975;" d="M857.6-128 166.4-128C70.4-128 0-57.6 0 38.4L0 729.6C0 825.6 70.4 896 166.4 896l697.6 0C953.6 896 1024 825.6 1024 729.6l0-697.6C1024-57.6 953.6-128 857.6-128zM166.4 832C108.8 832 64 787.2 64 729.6l0-697.6C64-19.2 108.8-64 166.4-64l697.6 0c57.6 0 102.4 44.8 102.4 102.4L966.4 729.6C960 787.2 915.2 832 857.6 832L166.4 832z"  horiz-adv-x="1024" />

    
    <glyph glyph-name="xiala" unicode="&#59001;" d="M155.204535 821.289545C126.615552 849.878528 80.483035 850.097883 51.719826 821.334674L51.719826 821.334674C23.155712 792.77056 23.012571 746.602277 51.378322 718.236526L827.770953-58.156105C884.758821-115.143973 977.122889-115.175424 1034.142208-58.156105L1810.534839 718.236526C1838.910318 746.612005 1838.956544 792.571465 1810.193335 821.334674L1810.193335 821.334674C1781.629294 849.898715 1735.477321 850.05824 1706.708626 821.289545L982.721463 97.302382C954.132553 68.713399 907.960393 68.533687 879.191698 97.302382L155.204535 821.289545 155.204535 821.289545Z"  horiz-adv-x="1902" />

    
    <glyph glyph-name="gouwuche" unicode="&#59094;" d="M958.650643 614.714615l-78.794577-343.394954c-6.630001-26.659173-28.229948-45.858444-42.786479-45.858444l-430.456822 0.396019c-9.572006 0.105401-32.760125 10.616802-39.581484 31.459502L237.657748 726.55175l-147.410328 0.369414c-14.556531 0-26.370601 11.81407-26.370601 26.370601s11.81407 26.370601 26.370601 26.370601l156.692738-0.421602c23.217794 0.421602 37.235043-23.205515 39.581484-31.486108l27.583219-99.996458 614.904695-0.369414c1.187035 0.078795 2.373047 0.078795 3.560082 0l0 0c2.478448 0.210801 4.984524 0.053212 7.40976-0.474814C954.009949 643.142062 962.342732 628.770749 958.650643 614.714615zM328.661392 595.042577l87.312578-316.445162 412.538731-0.369414c-0.158612 2.241041-0.026606 4.483104 0.421602 6.698562l71.199599 309.7466L328.661392 595.042577zM485.037928 199.302441c58.251705 0 105.48138-47.229674 105.48138-105.48138 0-58.251705-47.229674-105.48138-105.48138-105.48138s-105.48138 47.229674-105.48138 105.48138C379.556549 152.072767 426.786223 199.302441 485.037928 199.302441zM485.037928 41.07986c29.139667 0 52.741201 23.601534 52.741201 52.741201 0 29.139667-23.601534 52.741201-52.741201 52.741201-29.139667 0-52.741201-23.601534-52.741201-52.741201C432.29775 64.681394 455.899284 41.07986 485.037928 41.07986zM775.11249 199.302441c58.252729 0 105.48138-47.229674 105.48138-105.48138 0-58.251705-47.229674-105.48138-105.48138-105.48138-58.251705 0-105.48138 47.229674-105.48138 105.48138C669.63111 152.072767 716.860784 199.302441 775.11249 199.302441zM775.11249 41.07986c29.139667 0 52.741201 23.601534 52.741201 52.741201 0 29.139667-23.601534 52.741201-52.741201 52.741201s-52.741201-23.601534-52.741201-52.741201C722.372312 64.681394 745.973846 41.07986 775.11249 41.07986z"  horiz-adv-x="1024" />

    
    <glyph glyph-name="gouwucheicon" unicode="&#58932;" d="M798.6076 34.072259 225.381144 34.072259c-13.393032 0-25.637913 5.229095-34.484396 14.727423-8.67866 9.311063-12.954033 21.549805-12.038174 34.458813l34.916231 495.631194c1.566682 22.251793 22.020526 39.681768 46.561455 39.681768l503.323387 0c24.540929 0 44.994774-17.428951 46.561455-39.681768l34.922371-495.637334c0.908696-12.902868-3.365654-25.140587-12.045337-34.45165C824.245514 39.301354 812.000632 34.072259 798.6076 34.072259zM260.335237 592.1589c-10.381441 0-19.634176-6.925736-20.214391-15.127536L205.204615 81.394031c-0.39295-5.519714 1.38658-10.703783 5.010107-14.592346 3.797489-4.074805 9.182127-6.318916 15.165398-6.318916l573.22748 0c5.984295 0 11.367909 2.24411 15.172561 6.318916 3.623527 3.894703 5.403057 9.072633 5.016247 14.592346L783.874037 577.032388c-0.580215 8.201799-9.832949 15.127536-20.214391 15.127536L260.335237 592.159924zM512.164752 194.261635c-5.835915 0-11.006681 3.77907-12.670577 9.388834-2.00568 6.750751-20.459984 32.363082-52.151777 52.79646-4.78498 3.082198-9.942443 6.138814-15.243169 9.278317-32.246425 19.12457-72.385611 42.930765-72.018244 95.148034 0.347924 50.049906 26.759457 87.745437 67.273173 96.031147 27.275203 5.570879 61.527308-4.359284 84.618213-36.818557 22.968108 31.775704 57.471946 41.357943 85.147262 35.722596 40.229237-8.182356 66.453505-45.227064 66.795289-94.367251 0.355087-50.301639-37.753859-73.630974-68.375274-92.368734-6.461155-3.959172-12.766768-7.801686-18.479887-11.787464-30.222325-21.065781-50.501184-47.167253-52.126194-53.196573-1.534959-5.699816-6.693446-9.749038-12.599969-9.826809C512.275269 194.261635 512.223081 194.261635 512.164752 194.261635zM442.810175 432.066739c-3.365654 0-6.757914-0.341784-10.162454-1.037632-27.77867-5.680373-45.89733-33.291221-46.155203-70.335928-0.257873-37.056987 29.906124-54.95052 59.077513-72.250534 5.590322-3.314489 11.026124-6.537903 16.081257-9.795087 21.091364-13.598716 39.127136-30.925337 50.617841-45.801139 12.018731 15.217586 30.640857 32.833803 49.688679 46.104037 6.125511 4.26821 12.863982 8.408507 19.795858 12.644995 28.79686 17.628496 56.001455 34.277688 55.749722 69.6585-0.302899 43.846624-23.780613 64.222697-45.652759 68.672032-22.704095 4.603855-52.493561-6.545066-67.795059-41.899272-2.089591-4.830005-6.847965-7.957229-12.109806-7.963369 0 0-0.00614 0-0.013303 0-5.254677 0-10.006911 3.113921-12.109806 7.930623C487.772202 415.67542 466.112903 432.066739 442.810175 432.066739zM664.378479 499.88738l-26.411533 0 0.00614 10.219759c0.045025 67.576071 0.083911 125.94341-17.300015 166.875658-18.125823 42.692335-54.215786 61.734016-117.013017 61.734016-45.678342 0-77.828576-9.969049-98.287537-30.480198-36.425607-36.515658-36.244482-107.244536-36.037774-189.134615l0.031722-19.215644-26.411533 0-0.031722 19.151176c-0.218988 87.771019-0.412392 163.574473 43.750433 207.853955 25.669636 25.727964 63.933101 38.236859 116.987435 38.236859 72.863495 0 119.095445-25.456788 141.328819-77.821413 19.479657-45.89119 19.440771-106.748233 19.395746-177.219237L664.378479 499.88738z"  horiz-adv-x="1024" />

    
    <glyph glyph-name="shouye1" unicode="&#58896;" d="M712.714859 71.115943 308.329832 71.115943c-50.177819 0-94.456279 41.324174-94.456279 94.456279L213.873554 384 110.56363 384l401.435858 312.884057 401.435858-312.884057L807.171138 384l0-218.427778C807.171138 115.394403 762.896772 71.115943 712.714859 71.115943L712.714859 71.115943zM199.115432 413.516244l47.228651 0 0-247.944022c0-35.419697 26.565029-61.98575 61.98575-61.98575l404.385027 0c35.423791 0 61.989843 26.566052 61.989843 61.98575L774.704702 413.516244l47.227628 0L511.999488 658.510074 199.115432 413.516244 199.115432 413.516244zM588.74336 133.101693 432.301332 133.101693 432.301332 242.316094c0 41.324174 35.419697 76.743872 76.747965 76.743872 41.324174 0 76.743872-35.419697 76.743872-76.743872L588.74336 133.101693 588.74336 133.101693 588.74336 133.101693zM464.771861 165.572222l94.455255 0 0 76.743872c0 26.566052-20.661575 47.227628-47.227628 47.227628s-47.227628-20.661575-47.227628-47.227628L464.771861 165.572222 464.771861 165.572222zM464.771861 165.572222"  horiz-adv-x="1024" />

    
    <glyph glyph-name="yinlian1193427easyiconnet" unicode="&#58971;" d="M207.148373 688.11776c-28.299947-3.67616-56.36096-26.89024-65.508693-54.25152C135.932587 616.98048 25.555627 137.95328 25.166507 128.805547c-0.86016-24.9344 13.288107-43.54048 36.74112-48.308907 8.7552-1.795413 749.028693-1.87392 758.330027-0.157013 26.50112 5.07904 51.514027 26.2656 61.047467 51.67104 3.679573 9.85088 117.026133 498.414933 117.49376 506.545493 1.3312 22.981973-12.035413 41.823573-34.553173 48.622933C959.146667 688.663893 218.95168 689.681067 207.148373 688.11776L207.148373 688.11776zM198.550187 532.401493c0-0.546133-0.70656-3.44064-1.563307-6.41024-11.728213-40.024747-23.374507-93.72672-21.889707-100.604587 4.3008-20.169387 33.143467-18.527573 43.697493 2.423467 2.9696 5.782187 25.091413 99.198293 25.091413 105.762133 0 0.314027 34.63168-0.1536 34.942293-0.467627 0.078507-0.078507-0.1536-1.406293-0.62464-2.891093-0.38912-1.4848-6.017707-23.217493-12.427947-48.387413-13.759147-54.330027-15.557973-59.880107-22.746453-70.434133-23.610027-34.863787-102.171307-33.768107-108.581547 1.488213-1.406293 7.89504 15.479467 96.146773 22.981973 120.14592C157.822293 534.278827 198.550187 533.650773 198.550187 532.401493L198.550187 532.401493zM721.89952 532.401493c23.534933-5.16096 30.72-24.15616 19.851947-52.138667-10.939733-28.064427-33.768107-40.649387-74.17856-40.649387-12.19584 0-11.260587 1.87392-19.152213-36.348587-1.4848-7.2704-2.894507-13.994667-3.126613-14.854827-0.546133-2.49856-36.898133-2.49856-36.5056 0 30.72 131.71712 33.14688 143.0528 33.378987 143.991467l0.38912 1.72032 36.97664-0.23552C709.07904 533.650773 717.523627 533.34016 721.89952 532.401493L721.89952 532.401493zM406.1696 481.747627c4.92544-1.252693 8.912213-5.16096 8.912213-8.676693 0-12.741973-26.187093-21.497173-35.723947-11.96032C369.585493 470.879573 389.28384 485.966507 406.1696 481.747627zM315.333973 472.05376c0-1.24928-0.310613-3.283627-0.62464-4.4544l-0.62464-2.112853 6.17472 3.126613c16.26112 8.209067 32.208213 6.802773 37.444267-3.437227 3.20512-6.099627 2.812587-9.772373-5.393067-47.84128-1.4848-6.877867-3.362133-16.0256-4.06528-20.322987-1.798827-10.318507-0.467627-9.61536-18.75968-9.929387-15.63648-0.23552-15.63648-0.23552-15.479467 1.4848 0.078507 0.86016 1.95584 9.301333 4.06528 18.763093 8.362667 36.5056 8.51968 41.663147 1.327787 41.663147-3.986773 0-9.693867-2.423467-10.082987-4.222293-0.781653-3.515733-10.082987-48.073387-10.943147-52.452693l-0.938667-4.68992-16.0256-0.546133c-19.462827-0.62464-18.056533-2.187947-13.759147 15.55456 5.474987 22.514347 8.7552 38.46144 10.94656 52.5312 2.423467 15.479467 0.781653 13.759147 15.397547 16.104107 6.64576 1.017173 13.44512 2.187947 15.16544 2.658987C314.241707 475.101867 315.41248 474.791253 315.333973 472.05376zM558.445227 472.44288c0-1.092267-0.314027-3.126613-0.628053-4.4544l-0.62464-2.58048 6.17472 3.126613c31.8976 16.49664 44.161707 2.894507 34.78528-38.693547-2.10944-9.458347-4.850347-22.43584-6.017707-28.921173-1.1776-6.41024-2.58048-12.117333-3.05152-12.663467-1.795413-1.798827-32.129707-1.72032-31.972693 0.1536 0.078507 0.86016 1.877333 9.147733 4.06528 18.37056 8.598187 37.287253 8.676693 42.134187 1.170773 42.212693-6.02112 0-9.37984-2.030933-10.397013-6.488747-1.3312-5.55008-9.065813-42.68032-10.397013-49.404587l-1.01376-5.471573-16.0256-0.467627c-19.544747-0.546133-17.98144-2.501973-13.366613 16.571733 4.918613 20.247893 8.905387 39.553707 11.021653 53.469867 1.952427 13.2096 0.546133 11.7248 13.29152 13.677227 5.782187 0.938667 12.663467 2.112853 15.243947 2.737493C557.195947 475.02336 558.523733 474.866347 558.445227 472.44288L558.445227 472.44288zM869.563733 473.30304c1.877333-31.423147 2.501973-40.567467 2.816-40.96 0.232107-0.314027 4.68992 7.65952 9.765547 17.824427 10.400427 20.558507 8.133973 18.292053 19.54816 19.930453 3.048107 0.47104 9.147733 1.563307 13.59872 2.423467 11.178667 2.269867 11.257173 3.05152-1.72032-19.305813-17.506987-30.252373-41.66656-72.779093-50.182827-88.255147-26.03008-47.684267-25.873067-47.445333-48.2304-47.919787l-13.134507-0.310613 1.174187 3.82976c0.62464 2.030933 1.87392 6.331733 2.812587 9.458347l1.72032 5.625173 4.061867 0c4.68992 0 5.55008 0.781653 9.925973 8.205653 1.563307 2.58048 3.908267 6.64576 5.317973 8.99072 1.488213 2.34496 6.41024 10.86464 10.943147 18.916693l8.362667 14.5408-2.187947 19.073707c-2.501973 22.20032-5.7856 47.919787-7.113387 55.968427-1.174187 7.038293-1.174187 6.959787 8.04864 8.36608 4.061867 0.62464 10.55744 1.798827 14.383787 2.658987C867.6864 474.084693 869.021013 474.241707 869.563733 473.30304L869.563733 473.30304zM483.556693 472.367787c39.55712-7.2704 25.64096-75.984213-17.27488-85.521067-29.078187-6.485333-49.012053 4.614827-49.012053 27.36128C417.191253 453.604693 446.347947 479.245653 483.556693 472.367787zM778.17856 470.56896c2.19136-0.938667 5.00736-3.048107 6.413653-4.611413 2.34496-2.658987 2.49856-2.737493 2.737493-1.09568 0.310613 2.030933 0.075093 1.95584 20.48 5.31456 16.56832 2.658987 15.868587 2.737493 14.6944-2.266453-6.877867-28.767573-12.427947-53.78048-14.615893-65.97632-3.35872-18.292053-0.86016-16.336213-20.794027-16.100693l-16.725333 0.232107 0.232107 2.19136c0.23552 2.10944-0.86016 2.891093-1.798827 1.327787-5.782187-9.301333-33.30048-5.393067-41.035093 5.7856C708.21888 423.82336 748.78976 484.328107 778.17856 470.56896L778.17856 470.56896zM410.545493 455.560533c0.23552-0.23552 0-2.423467-0.62464-4.846933-3.908267-16.41472-11.410773-49.483093-12.58496-55.657813l-1.406293-7.427413-16.807253-0.467627c-20.169387-0.546133-18.916693-1.4848-14.92992 10.554027 3.751253 11.646293 7.113387 26.340693 9.458347 41.506133 1.952427 13.056-0.078507 11.178667 14.619307 13.366613 6.79936 1.017173 13.755733 2.19136 15.476053 2.58048C407.575893 456.02816 409.99936 456.185173 410.545493 455.560533zM500.28544 349.71648c0-0.47104-1.01376-2.658987-2.34496-4.922027-1.24928-2.348373-2.34496-4.457813-2.34496-4.693333 30.252373-0.546133 31.348053-0.62464 30.958933-1.87392l-5.393067-18.213547-43.85792 0-2.423467-2.269867c-5.471573-5.236053-35.566933-11.803307-35.566933-7.738027l5.55008 18.60608 4.06528 0c6.956373 0 8.7552 1.4848 14.851413 12.346027l5.317973 9.540267C494.73536 350.501547 500.28544 350.18752 500.28544 349.71648L500.28544 349.71648zM567.514453 349.559467c0-0.546133-0.699733-3.283627-1.559893-6.096213s-1.56672-5.317973-1.56672-5.628587c0-0.232107 2.58048 1.252693 5.707093 3.362133 11.332267 7.502507 20.794027 9.304747 49.7152 9.304747 11.48928 0 21.10464-0.160427 21.34016-0.38912 0.703147-0.781653-16.418133-56.439467-18.916693-61.36832-3.35872-6.642347-6.956373-10.315093-12.663467-12.977493l-4.922027-2.266453-29.313707-0.385707-29.31712-0.392533-5.236053-17.199787c-10.164907-33.068373-10.472107-30.8736 4.532907-29.3888 11.96032 1.170773 11.178667 2.266453 7.502507-10.164907l-3.126613-10.472107-15.086933-0.23552c-32.361813-0.54272-36.584107 1.406293-33.06496 15.008427 1.72032 6.567253 38.458027 128.590507 39.007573 129.52576C541.32736 350.969173 567.514453 350.733653 567.514453 349.559467L567.514453 349.559467zM701.965653 349.794987c0-0.385707-0.546133-2.187947-1.174187-3.986773-1.72032-4.922027-1.72032-4.922027 4.92544-1.559893 8.751787 4.4544 29.156693 6.253227 71.133867 6.253227l13.44512 0 0-6.178133c0-7.2704 0.392533-7.738027 6.877867-8.51968l4.68992-0.549547-2.812587-9.14432-2.737493-9.22624-9.0624-0.1536c-23.453013-0.47104-27.364693 1.795413-27.518293 15.79008l0 6.642347-1.56672-4.84352-1.563307-4.92544-5.000533 0c-2.816 0-5.082453-0.157013-5.082453-0.392533 0-0.232107-24.937813-83.2512-28.61056-95.133013-0.38912-1.170773 0.078507-1.406293 3.048107-1.406293 4.379307 0 4.53632-0.232107 3.20512-4.061867-1.563307-4.532907-1.563307-4.532907 3.826347-4.532907 3.519147 0 5.86752 0.47104 8.36608 1.795413 3.672747 1.798827 3.362133 1.488213 19.780267 24.623787l6.79936 9.536853-13.912747 0c-16.653653 0-15.40096-0.93184-12.352853 9.22624l2.49856 8.359253 16.88576 0.23552 16.807253 0.157013c3.20512 10.707627 4.1472 14.06976 4.1472 14.30528 0 0.310613-7.35232 0.628053-16.264533 0.703147l-16.257707 0.23552 2.73408 9.219413 2.658987 9.147733 46.03904 0c25.248427 0 45.96736-0.232107 45.96736-0.546133 0-0.38912-1.174187-4.4544-2.58048-9.222827l-2.583893-8.598187-15.55456-0.392533-15.476053-0.392533c-2.658987-7.89504-3.67616-11.10016-3.986773-12.274347l-0.474453-2.187947 14.779733 0c17.42848 0 16.257707 0.781653 13.052587-9.458347l-2.501973-8.13056-16.882347-0.23552-16.964267-0.157013-2.423467-3.126613-2.42688-3.048107 6.49216-0.23552 6.485333-0.232107 1.952427-12.34944c2.187947-13.912747 2.112853-13.837653 8.833707-13.837653 5.31456 0 5.16096 1.088853 1.563307-11.10016l-2.9696-10.011307-9.611947 0c-16.96768 0-20.094293 2.740907-22.828373 19.85536l-1.72032 11.492693-6.17472-8.444587c-16.810667-23.135573-17.74592-23.68512-39.55712-23.68512-13.755733 0-13.602133-0.078507-11.96032 4.222293 0.703147 2.030933 0.703147 2.030933-3.362133 2.030933-4.140373 0-4.140373 0-4.922027-2.891093l-0.703147-2.9696-14.30528-0.23552-14.301867-0.157013 0.467627 1.72032c1.409707 5.00736 4.222293 4.532907-27.357867 4.532907-26.893653 0-28.613973 0.078507-28.224853 1.409707l2.816 8.987307c2.894507 9.458347 2.658987 9.151147 5.860693 9.151147 2.42688 0 2.658987 0.232107 3.833173 3.751253 24.30976 80.595627 31.96928 105.844053 32.986453 109.438293l1.95584 6.413653 14.455467 0C695.476907 350.501547 701.965653 350.18752 701.965653 349.794987L701.965653 349.794987zM520.37632 305.783467l-5.471573-17.821013-30.95552 0c-3.126613-10.00448-4.222293-13.523627-4.4544-14.230187-0.392533-1.327787 0.703147-1.40288 15.240533-1.40288 8.676693 0 15.714987-0.31744 15.714987-0.70656 0-0.310613-0.314027-1.634987-0.781653-2.891093-0.392533-1.24928-1.641813-5.317973-2.737493-9.065813l-2.030933-6.88128-31.737173 0-3.597653-12.038827c-5.31456-17.431893-4.768427-17.98144 14.92992-15.162027 8.13056 1.092267 7.816533 1.795413 4.222293-10.007893l-3.048107-10.082987-21.418667 0c-33.536 0-34.16064 0.781653-25.326933 30.016853 2.812587 9.14432 5.07904 16.807253 5.07904 16.964267 0 0.1536-3.82976 0.314027-8.598187 0.314027-4.68992 0-8.598187 0.232107-8.598187 0.467627 3.751253 12.82048 5.003947 16.964267 5.157547 17.74592 0.392533 1.174187 1.488213 1.3312 9.304747 1.3312l8.833707 0 4.297387 15.633067-8.362667 0c-6.253227 0-8.287573 0.23552-8.287573 1.017173 0 1.01376 4.611413 16.100693 5.239467 17.196373C443.613867 307.27168 520.843947 306.879147 520.37632 305.783467L520.37632 305.783467zM619.574613 268.653227c-0.232107-0.781653-0.935253-3.908267-1.559893-6.88128-2.973013-14.301867-7.038293-17.506987-23.76704-18.445653-5.7856-0.314027-10.632533-0.781653-10.939733-1.017173-1.252693-1.3312-1.099093-13.755733 0.228693-15.79008l1.3312-2.034347 10.082987 0.546133c5.55008 0.314027 10.082987 0.474453 10.082987 0.314027 0-0.86016-5.474987-18.838187-5.9392-19.61984-0.781653-1.252693-32.44032-0.314027-36.584107 1.092267-6.32832 2.10944-6.253227 1.406293-5.471573 33.614507l0.699733 28.37504 13.134507 0.23552 13.052587 0.157013 0-10.94656 5.085867 0c5.778773 0 6.253227 0.47104 8.598187 7.662933l1.327787 4.06528 10.47552 0C619.106987 269.98784 619.967147 269.90592 619.574613 268.653227L619.574613 268.653227zM667.88352 487.84384l-5.55008-24.388267 7.74144-0.23552c39.23968-1.09568 55.893333 44.40064 17.42848 47.527253-6.017707 0.47104-11.646293 1.017173-12.506453 1.174187C673.512107 512.232107 673.047893 510.436693 667.88352 487.84384L667.88352 487.84384zM463.858347 452.901547c-9.925973-3.986773-18.838187-40.881493-11.332267-46.667093 5.625173-4.379307 13.755733 2.891093 17.664 15.79008C477.381973 446.02368 475.037013 457.434453 463.858347 452.901547zM769.194667 450.399573c-10.24-5.157547-18.13504-41.43104-10.007893-45.64992 10.397013-5.393067 23.296 13.912747 23.296 34.942293C782.482773 449.696427 776.854187 454.229333 769.194667 450.399573L769.194667 450.399573zM562.432 328.454827l-2.73408-9.147733c-1.41312-4.4544-2.658987-8.6016-2.89792-9.14432-0.23552-0.62464 2.501973 0.467627 6.096213 2.34496 10.007893 5.31456 13.370027 6.02112 28.22144 6.488747l13.052587 0.467627c1.880747 6.331733 2.423467 8.598187 2.423467 9.069227C606.59712 329.86112 562.899627 329.704107 562.432 328.454827L562.432 328.454827zM553.44128 299.14112l-2.266453-8.04864 43.933013 0.38912 2.812587 8.205653C563.449173 299.687253 553.44128 299.451733 553.44128 299.14112zM692.507307 317.66528c-1.952427-6.406827-3.35872-11.728213-3.126613-11.728213 0.23552 0 3.126613 1.020587 6.331733 2.266453 3.201707 1.252693 8.51968 2.658987 11.7248 3.126613 3.201707 0.549547 5.864107 1.017173 5.942613 1.09568 0.232107 0.23552 5.003947 15.947093 5.003947 16.493227 0 0.23552-5.003947 0.47104-11.175253 0.47104l-11.178667 0L692.507307 317.66528zM684.53376 291.328c-0.157013-0.392533-1.87392-5.710507-3.672747-11.96032-1.798827-6.253227-3.44064-11.574613-3.597653-11.80672-0.1536-0.314027 2.501973 0.703147 6.024533 2.187947 3.433813 1.488213 8.833707 3.20512 11.96032 3.754667 6.877867 1.174187 7.18848 1.327787 7.738027 4.06528 0.314027 1.245867 1.40288 4.922027 2.423467 8.287573l1.877333 6.017707-11.175253 0C689.926827 291.87072 684.690773 291.631787 684.53376 291.328L684.53376 291.328zM666.794667 232.308053l22.35392-0.628053c4.532907 15.322453 6.099627 20.247893 6.32832 20.794027l-22.35392 1.092267L666.794667 232.308053z"  horiz-adv-x="1024" />

    
    <glyph glyph-name="daishouhuo" unicode="&#58945;" d="M924.180574 747.541807 400.615167 747.541807c-15.956414 0-28.938076-12.981662-28.938076-28.938076l0-124.785028L196.742896 593.818703c-9.202593 0-17.560958-5.363148-21.395286-13.728676L72.977082 356.761636c-1.410116-3.077082-2.140757-6.42227-2.140757-9.807367l0-223.329415c0-12.998035 10.536984-23.536043 23.536043-23.536043l81.038688 0c9.098215-45.357024 49.234331-79.630618 97.228415-79.630618s88.131223 34.274618 97.229438 79.630618l25.578562 0c0.019443 0 0.037862 0.001023 0.056282 0.001023 1.659803-0.296759 3.366677-0.461511 5.110391-0.461511l284.250926 0c9.275247-45.128827 49.306986-79.171154 97.140411-79.171154 47.832402 0 87.86414 34.042327 97.140411 79.171154l45.035706 0c15.957437 0 28.939099 12.981662 28.939099 28.938076L953.120696 718.603731C953.119673 734.560144 940.13801 747.541807 924.180574 747.541807zM117.909433 341.817272l93.936439 204.930369 159.831218 0 0-399.585721-3.764744 0c-11.963473 41.325198-50.14405 71.627341-95.271854 71.627341s-83.308381-30.302143-95.271854-71.627341l-59.459207 0L117.909433 341.817272zM272.640494 67.530278c-28.724205 0-52.093449 23.369244-52.093449 52.093449 0 28.723182 23.369244 52.092425 52.093449 52.092425 28.724205 0 52.093449-23.369244 52.093449-52.092425C324.733942 90.898499 301.364699 67.530278 272.640494 67.530278zM782.00548 67.530278c-28.724205 0-52.093449 23.369244-52.093449 52.093449 0 28.723182 23.369244 52.092425 52.093449 52.092425s52.093449-23.369244 52.093449-52.092425C834.098929 90.898499 810.729685 67.530278 782.00548 67.530278zM905.57789 147.17113l-28.304649 0c-11.966543 41.320081-50.14405 71.617108-95.268784 71.617108-45.124733 0-83.302241-30.297027-95.268784-71.617108L419.21785 147.17113 419.21785 700.000024l486.36004 0L905.57789 147.17113zM179.01207 339.805452l93.627401 0c12.999059 0 23.536043 10.538007 23.536043 23.536043l0 93.628424c0 12.999059-10.536984 23.536043-23.536043 23.536043s-23.536043-10.536984-23.536043-23.536043l0-70.092381-70.091358 0c-12.999059 0-23.536043-10.536984-23.536043-23.536043C155.476027 350.343459 166.014034 339.805452 179.01207 339.805452z"  horiz-adv-x="1196" />

    
    <glyph glyph-name="huabei" unicode="&#58928;" d="M541.03658 640.98851C588.231603 628.996333 633.537914 651.069222 642.276047 690.34531 651.01418 729.575888 619.839069 771.104777 572.689558 783.142466 525.449025 795.157399 480.165469 773.061755 471.450092 733.785666 462.711958 694.532333 493.864314 653.003444 541.03658 640.98851ZM982.350998 575.853008C972.61162 603.887853 960.824243 630.489097 947.239176 655.633986 908.213398 727.791853 854.23722 787.320386 791.136065 831.670964 779.872065 839.498875 758.436332 851.855142 757.77642 852.21923 757.617132 852.310253 757.457843 852.401275 757.298554 852.469542 640.790109 917.140831 581.102287 902.895853 582.05802 854.426519 582.808954 818.199675 615.121843 809.21123 643.771087 795.148297 741.164865 747.407142 793.730198 674.020475 766.99242 614.44643 742.461932 559.787586 651.28042 540.51363 556.86762 575.352386 460.20202 611.033097 333.476332 695.979586 316.43242 600.155942 302.028154 519.191675 423.13322 516.55203 549.312776 384.137453 603.379976 327.407853 617.306376 228.694253 585.698909 149.34563 517.682554 29.583142 322.826732 57.59523 234.444153 155.353097 132.954375 267.651764 146.175353 384.66083 151.409131 413.469364 163.719886 471.49603 185.997575 518.895853 203.269042 547.590608 220.790819 579.175319 229.779264 600.155942 229.483442 625.528386 228.982819 666.488386 201.016242 693.430964 162.172508 695.797542 115.864953 698.61923 81.572331 668.809453 61.547442 624.777453 13.965575 521.67203-1.690247 402.501186 22.885753 285.014253 23.249842 282.829719 23.568419 280.645186 24.000775 278.460653 26.253575 266.946342 29.143531 255.682342 32.488597 244.736919L32.420331 244.78243C32.420331 244.78243 37.107975 226.031853 48.280953 200.522875 51.921842 191.238608 55.539975 181.954342 59.567708 172.988653 59.476686 173.10243 59.362908 173.216208 59.249131 173.329986 59.249131 173.329986 59.567708 172.761097 60.022819 171.964653 169.272242-69.881392 438.174643-189.39357 683.001665-96.118547 942.801843 2.845364 1076.809309 303.696564 982.350998 575.853008Z"  horiz-adv-x="1024" />

    
    <glyph glyph-name="xiaoxi" unicode="&#59798;" d="M479.786667 62.677333c-25.6 0-50.517333 2.304-74.794667 6.314667l-175.317333-106.325333 0 177.024c-91.392 64.128-150.058667 162.517333-150.058667 272.981333 0 193.28 179.157333 349.994667 400.128 349.994667s400.128-156.714667 400.128-349.994667C879.914667 219.392 700.757333 62.677333 479.786667 62.677333zM479.786667 712.661333c-193.365333 0-350.122667-134.314667-350.122667-299.989333 0-101.674667 59.178667-191.36 149.418667-245.589333l-1.578667-115.968 117.717333 70.741333c27.136-5.76 55.338667-9.173333 84.522667-9.173333 193.365333 0 350.122667 134.314667 350.122667 299.989333C829.909333 578.346667 673.152 712.661333 479.786667 712.661333zM654.848 437.674667 304.725333 437.674667c-13.824 0-25.002667 11.178667-25.002667 25.002667 0 13.824 11.178667 25.002667 25.002667 25.002667l350.122667 0c13.824 0 25.002667-11.178667 25.002667-25.002667C679.850667 448.853333 668.629333 437.674667 654.848 437.674667zM354.730667 337.664l250.069333 0c13.824 0 25.002667-11.178667 25.002667-25.002667 0-13.824-11.178667-25.002667-25.002667-25.002667L354.730667 287.658667c-13.824 0-25.002667 11.178667-25.002667 25.002667C329.728 326.485333 340.906667 337.664 354.730667 337.664z"  horiz-adv-x="1024" />

    
    <glyph glyph-name="fukuan" unicode="&#58973;" d="M799.488-4.448 159.936-4.448c-52.928 0-96 43.072-96 96L63.936 670.048c0 52.928 43.072 96 96 96l642.496 0c52.928 0 96-43.072 96-96L898.432 576c0-17.664-14.304-32-32-32s-32 14.336-32 32L834.432 670.048c0 17.632-14.336 32-32 32L159.936 702.048c-17.632 0-32-14.368-32-32l0-578.496c0-17.664 14.368-32 32-32l639.552 0c17.664 0 32 14.336 32 32l0 98.944c0 17.696 14.304 32 32 32s32-14.304 32-32l0-98.944C895.488 38.624 852.448-4.448 799.488-4.448zM661.472 381.888m-31.328 0a0.979 0.979 0 1 0 62.656 0 0.979 0.979 0 1 0-62.656 0ZM896 256 576 256c-35.296 0-64 28.704-64 64l0 128c0 35.296 28.704 64 64 64l320 0c35.296 0 64-28.704 64-64l0-128C960 284.704 931.296 256 896 256zM576 448l0-128 320.064 0L896 448 576 448z"  horiz-adv-x="1024" />

    
    <glyph glyph-name="negative" unicode="&#58889;" d="M512 864C248 864 32 648 32 384s216-480 480-480 480 216 480 480S776 864 512 864zM512 896C228.8 896 0 667.2 0 384s228.8-512 512-512 512 228.8 512 512S795.2 896 512 896z m0-992C248-96 32 120 32 384S248 864 512 864s480-216 480-480-216-480-480-480zM512 384m-392 0a392 392 0 1 1 784 0 392 392 0 1 1-784 0ZM240 400h544v-32H240z"  horiz-adv-x="1024" />

    
    <glyph glyph-name="plus" unicode="&#58890;" d="M512 864C248 864 32 648 32 384s216-480 480-480 480 216 480 480S776 864 512 864zM512 896C228.8 896 0 667.2 0 384s228.8-512 512-512 512 228.8 512 512S795.2 896 512 896z m0-992C248-96 32 120 32 384S248 864 512 864s480-216 480-480-216-480-480-480zM512 384m-392 0a392 392 0 1 1 784 0 392 392 0 1 1-784 0ZM784 400H528V656h-32v-256H240v-32h256v-256h32V368h256z"  horiz-adv-x="1024" />

    
    <glyph glyph-name="social-logo-500px" unicode="&#58893;" d="M252.95473 223.160684c0.213329-0.618654 5.525218-15.295681 8.597154-22.548863a333.966376 333.966376 0 0 1 71.827837-106.536448 334.009041 334.009041 0 0 1 237.008396-98.131289 334.030374 334.030374 0 0 1 237.008396 98.173955 334.030374 334.030374 0 0 1 98.152621 237.008396 334.030374 334.030374 0 0 1-98.173954 237.008396 334.051707 334.051707 0 0 1-237.008396 98.152621c-45.759047 0-91.518093-9.109144-132.263911-26.346117-32.575321-13.781046-87.720839-49.278973-120.018833-82.55828l-0.191996-0.213329V833.046645h463.37168c16.852982 0.213329 16.852982 23.743505 16.852982 31.487344 0 7.722506 0 31.274015-16.895648 31.466011H280.196829c-13.653049 0-22.07954-11.349097-22.07954-21.866211v-388.258578c0-12.522406 15.594342-21.567551 30.079374-24.682153 28.330076-6.037208 34.879273 3.007937 41.812462 12.586405l0.917314 1.279973c10.581113 15.722339 43.668424 49.001646 43.988417 49.342972 51.625591 51.625591 120.65882 80.062332 194.363951 80.062332a272.207662 272.207662 0 0 0 193.830628-80.062332 271.695673 271.695673 0 0 0 80.318327-193.275973c0-73.086477-28.372742-141.735714-79.913002-193.275974-50.87894-50.857607-121.960126-80.040999-195.003937-80.040999-49.492302 0-97.235308 13.183725-138.151789 38.121873l0.191996 236.091081c0 31.466011 13.653049 65.705298 36.521906 91.518094a133.949209 133.949209 0 0 0 101.544551 45.823045c38.057874 0 73.598467-14.442366 100.093915-40.681819a136.637153 136.637153 0 0 0 40.788483-97.747297c0-78.889023-62.036041-140.690402-141.223724-140.690402-15.274348 0-43.028437 6.741193-44.15908 7.039853-15.999667 4.757234-22.826191-17.450303-25.044812-24.767484-8.618487-28.159413 4.330576-33.705964 6.997188-34.55928 25.492802-7.893169 42.196454-9.386471 64.126664-9.386471 111.784338 0 202.747776 90.984771 202.747776 202.833107 0 110.952355-90.89944 201.233141-202.619779 201.233141-54.71886 0-106.131122-20.906231-144.743651-58.900106-36.7779-36.18058-57.876128-84.392908-57.876128-132.306577v-1.194642c-0.191996-5.973209-0.29866-147.495594-0.341326-193.937293l-0.213329 0.213329c-21.012896 23.295515-41.769796 58.900106-55.550842 95.294015-5.397221 14.271703-17.599633 11.733089-34.239287 6.613196-7.253182-2.239953-29.375388-9.045145-24.490156-25.044812l0.085331-0.191996z m238.160372 55.465511c0.063999-6.783859 6.271869-12.735735 9.983792-16.276994l1.173309-1.130643c6.357201-6.250536 12.415741-9.429137 18.004958-9.429137 4.607904 0 7.466511 2.175955 8.469157 3.135935 2.815941 2.602612 34.516614 34.70861 37.545884 37.759213L601.598133 257.485302c3.285265-3.69059 6.826524-5.546551 10.986438-5.653215 5.631883 0 11.797088 3.370596 18.282286 9.983792 15.253016 15.573009 7.615841 23.978167 3.925251 28.031416l-35.81792 35.839253 37.353888 37.609883c8.191829 8.853149 0.95998 18.282286-6.250536 25.492803-10.474448 10.453116-20.586238 13.183725-27.071436 7.210516l-37.119227-37.204558-37.567217 37.545884a10.303785 10.303785 0 0 1-7.253182 2.943939c-5.013229 0-10.943772-3.413262-17.620966-10.069124-11.541093-11.541093-14.015708-19.540926-7.999834-25.898127l37.545885-37.460553-37.332556-37.417887c-3.071936-3.050603-4.607904-6.357201-4.565238-9.791796z m81.832962 507.637425c-60.030749 0-123.901419-12.117081-170.812442-32.425992a13.397054 13.397054 0 0 1-8.682486-11.647757c-0.618654-5.333222 0.831983-12.373076 4.415908-21.546218 2.901273-7.423845 10.645112-27.1781 25.599467-21.482219 48.020333 18.324952 101.117893 28.415408 149.479553 28.415408 54.825524 0 107.987084-10.730443 158.012708-31.892669 39.743172-16.810316 77.267724-41.108477 118.034874-76.457074 2.986604-2.559947 6.143872-3.882586 9.386471-3.882585 7.957168 0 15.573009 7.807837 22.100873 15.146351 10.879773 12.202412 18.367617 22.356868 7.637174 32.511322-38.932522 36.905898-81.619633 64.46799-134.290535 86.739527a461.707714 461.707714 0 0 1-180.881565 36.521906z m323.534593-741.403221c-7.231849 7.210516-13.375721 11.477094-18.772943 13.013062-5.46122 1.578634-10.346451 0.405325-14.122372-3.391929l-3.562593-3.54126a403.788921 403.788921 0 0 0-286.500697-118.674861 403.767588 403.767588 0 0 0-286.500698 118.674861c-38.740526 38.761859-67.966584 82.088956-86.824858 128.78665-18.346284 45.524385-24.362159 79.763672-26.324785 91.006104-0.213329 1.066644-0.341326 1.877294-0.447991 2.495948-2.538614 13.226391-14.719693 14.165038-32.255328 11.477095-7.295848-1.10931-29.46072-4.479907-27.348763-20.458241l0.042665-0.362659a463.777005 463.777005 0 0 1 130.557281-255.568009 463.777005 463.777005 0 0 1 147.943584-99.731256A462.390367 462.390367 0 0 1 573.524052-128c62.804025 0 123.773421 12.309077 181.180225 36.607237a463.777005 463.777005 0 0 1 147.943585 99.752589c0.085332 0.085332 2.431949 2.410616 3.711922 3.797254 4.693236 5.119893 8.78915 14.079707-9.877127 32.703319z"  horiz-adv-x="1024" />

    
    <glyph glyph-name="delete" unicode="&#59054;" d="M842.105 691.305h-92.667v-598.129c0-43.213-35.031-78.244-78.244-78.244h-463.896c0-42.396 46.333-45.242 61.583-45.242h496.417c42.395 0 76.764 34.368 76.764 76.763h-2.841c1.718 7.056 2.883 14.318 2.883 21.902v622.951zM332.399 497.829c-7.167 0-12.977-5.81-12.977-12.977v-302.713c0-7.167 5.81-12.977 12.977-12.977 7.167 0 12.977 5.81 12.977 12.977v302.713c0 7.167-5.811 12.977-12.977 12.977zM519.080 497.829c-7.167 0-12.977-5.81-12.977-12.977v-302.713c0-7.167 5.81-12.977 12.977-12.977 7.167 0 12.977 5.81 12.977 12.977v302.713c0 7.167-5.81 12.977-12.977 12.977zM705.77 169.163c7.167 0 12.977 5.81 12.977 12.977v302.713c0 7.167-5.81 12.977-12.977 12.977s-12.977-5.81-12.977-12.977v-302.713c-0.001-7.167 5.81-12.977 12.977-12.977zM947.083 702.085h-299.631c-6.543 66.871-63.088 119.308-131.648 119.308s-125.105-52.436-131.648-119.308h-308.055c-7.167 0-12.977-5.81-12.977-12.977s5.81-12.977 12.977-12.977h101.237v-610.756c0-63.355 51.555-114.91 114.91-114.91h447.884c63.355 0 114.91 51.555 114.91 114.91v610.755h92.042c7.167 0 12.977 5.81 12.977 12.977 0 7.167-5.81 12.978-12.977 12.978zM515.804 795.439c54.238 0 99.117-40.821 105.538-93.354h-211.076c6.421 52.532 51.3 93.354 105.538 93.354zM829.087 65.375c0-49.057-39.899-88.956-88.956-88.956h-447.884c-49.057 0-88.956 39.899-88.956 88.956v610.756h625.797v-610.756z"  horiz-adv-x="1024" />

    
    <glyph glyph-name="zhifu" unicode="&#59188;" d="M174.829268 583.804878c0 68.682927 56.195122 124.878049 124.878049 124.878049h536.97561c68.682927 0 124.878049-56.195122 124.878049-124.878049v-524.487805c0-68.682927-56.195122-124.878049-124.878049-124.878049H299.707317c-68.682927 0-124.878049 56.195122-124.878049 124.878049V583.804878zM974.04878 704.936585C974.04878 776.117073 914.107317 833.560976 841.678049 833.560976H182.321951C109.892683 833.560976 49.95122 776.117073 49.95122 704.936585v-640.62439C49.95122-8.117073 109.892683-65.560976 182.321951-65.560976h659.356098C914.107317-65.560976 974.04878-8.117073 974.04878 63.063415v56.195122c0 7.492683-4.995122 12.487805-12.487804 12.487804s-12.487805-4.995122-12.487805-12.487804v-56.195122c0-57.443902-48.702439-103.64878-107.395122-103.648781H182.321951C123.629268-40.585366 74.926829 5.619512 74.926829 63.063415V704.936585C74.926829 762.380488 123.629268 808.585366 182.321951 808.585366h659.356098c58.692683 0 107.395122-46.204878 107.395122-103.648781v-56.195122c0-7.492683 4.995122-12.487805 12.487805-12.487804s12.487805 4.995122 12.487804 12.487804v56.195122zM347.160976 371.512195c0-89.912195 72.429268-162.341463 162.341463-162.341463h462.048781V533.853659h-462.048781c-89.912195 0-162.341463-72.429268-162.341463-162.341464z m599.414634-137.365854h-437.073171c-76.17561 0-137.365854 61.190244-137.365854 137.365854s61.190244 137.365854 137.365854 137.365854h437.073171v-274.731708zM512 371.512195m-59.941463 0a59.941463 59.941463 0 1 1 119.882926 0 59.941463 59.941463 0 1 1-119.882926 0Z"  horiz-adv-x="1024" />

    
    <glyph glyph-name="yixuanzhong" unicode="&#59229;" d="M853.333333 896H170.666667C76.8 896 0 819.2 0 725.333333v-682.666666c0-93.866667 76.8-170.666667 170.666667-170.666667h682.666666c93.866667 0 170.666667 76.8 170.666667 170.666667V725.333333c0 93.866667-76.8 170.666667-170.666667 170.666667z m17.066667-302.933333l-426.666667-473.6c-8.533333-8.533333-25.6-8.533333-34.133333 0l-256 264.533333c-4.266667 4.266667-8.533333 12.8-8.533333 17.066667 0 4.266667 4.266667 12.8 8.533333 17.066666l42.666667 38.4c4.266667 4.266667 12.8 8.533333 17.066666 8.533334 4.266667 0 12.8-4.266667 17.066667-8.533334l179.2-132.266666c8.533333-8.533333 25.6-8.533333 34.133333 0l349.866667 349.866666c8.533333 8.533333 25.6 8.533333 34.133333 0l42.666667-42.666666c8.533333-12.8 8.533333-29.866667 0-38.4z"  horiz-adv-x="1024" />

    
    <glyph glyph-name="easyapi-logo" unicode="&#58962;" d="M699.5456 713.8816H397.6576v-184.5888h299.2256v-73.8432H397.6576v-235.5712h299.2256v-74.7136H321.2928V788.5952h378.2528v-74.7136zM1259.8144 145.1648h-71.9232v70.3232c-52.6976-57.4336-113.3568-86.144-182.016-86.144-68.672 0-127.424 25.0496-176.256 75.1616-48.832 50.0992-73.2544 109.8752-73.2544 179.3152s24.5504 128.9088 73.6896 178.432c49.1264 49.4976 109.0688 74.2784 179.8016 74.2784 70.72 0 130.0864-28.4416 178.0224-85.2608v72.9472h71.9232v-479.0528zM1011.2 197.0304c49.1264 0 91.456 17.5744 126.9632 52.736 35.52 35.1616 53.2736 78.9632 53.2736 131.4176 0 52.4416-17.4592 96.384-52.3776 131.8528-34.9312 35.456-77.696 53.1712-128.3072 53.1712s-93.376-18.3296-128.3072-54.9376c-34.9312-36.6208-52.3904-79.8464-52.3904-129.6512 0-49.8176 17.7664-93.0432 53.2736-129.6512 35.5328-36.6208 78.144-54.9376 127.872-54.9376zM1627.4176 567.9744l-47.0528-48.3456c-34.9312 32.2304-66.9056 48.3456-95.8976 48.3456-18.3552 0-33.7408-5.7088-46.1696-17.152-12.4288-11.4304-18.6496-25.4848-18.6496-42.1888s6.9504-31.3472 20.864-43.9552c13.9008-12.608 38.6304-28.1216 74.1376-46.592 35.52-18.4448 62.8864-38.8224 82.1376-61.0816 19.2256-22.272 28.8512-49.5232 28.8512-81.7536 0-41.024-14.3616-75.584-43.0592-103.7184-28.7232-28.1216-64.0768-42.2016-106.112-42.2016-58.5984 0-107.4432 24.6144-146.5088 73.8432l46.1696 50.9824c31.9616-36.928 64.512-55.3728 97.664-55.3728 22.4896 0 41.728 7.3088 57.7152 21.9776 15.9872 14.6432 23.9744 31.7696 23.9744 51.4176 0 19.6224-7.2576 36.032-21.76 49.2288-14.5024 13.184-39.3728 28.5568-74.5856 46.144-35.2256 17.5744-61.8624 37.056-79.9104 58.4448-18.0608 21.3888-27.0848 49.5104-27.0848 84.3904 0 34.8544 12.8768 64.6016 38.6304 89.216s59.776 36.928 102.1056 36.928c42.3296 0 87.168-22.8608 134.5408-68.5568zM2123.7376 624.2176l-286.7968-648.6912h-76.3648l93.2352 210.944L1657.6 624.2176h76.352l158.9376-350.7072 153.6128 350.7072h77.2352zM2328.6528 793.6l-257.7536-640h107.4048l193.3056 512h42.9568l171.84-512h107.392L2457.5232 793.6zM3430.4 793.6h89.6v-640h-89.6zM3088.1152 793.6H2982.4v-435.2h105.7152c116.3136 0 210.6624 98.2528 210.6624 217.6 0 119.296-94.3488 217.6-210.6624 217.6zM2828.8 793.6h89.6v-640h-89.6z"  horiz-adv-x="3840" />

    
    <glyph glyph-name="x" unicode="&#58898;" d="M550.659 405.435l324.395 324.386c10.945 10.945 10.945 28.699 0 39.644-10.948 10.95-28.704 10.95-39.648 0.004L511.01 445.084 186.625 769.47c-10.946 10.947-28.703 10.947-39.648 0-10.946-10.95-10.946-28.703 0-39.648l324.385-324.386-324.385-324.401c-10.946-10.944-10.946-28.703 0-39.65 10.945-10.943 28.702-10.943 39.648 0L511.01 365.787l324.396-324.401c10.944-10.944 28.7-10.944 39.648 0 10.945 10.946 10.945 28.705 0 39.649L550.66 405.435z"  horiz-adv-x="1024" />

    
    <glyph glyph-name="fenlei" unicode="&#58934;" d="M145.728 625.728h207.616c18.688 0 33.728 15.104 33.728 33.792s-15.040 33.728-33.728 33.728h-207.616c-18.624 0-33.728-15.040-33.728-33.728 0-18.624 15.104-33.792 33.728-33.792zM145.728 324.736h236.096c18.624 0 33.728 15.040 33.728 33.728 0 18.624-15.104 33.728-33.728 33.728l-236.096 0c-18.624 0-33.728-15.104-33.728-33.728 0-18.688 15.104-33.728 33.728-33.728zM829.504 99.136h-683.776c-18.624 0-33.728-15.040-33.728-33.664 0-18.688 15.104-33.792 33.728-33.792h683.776c18.624 0 33.664 15.104 33.664 33.792 0 18.56-15.040 33.664-33.664 33.664zM902.656 302.336l-73.6 76.992c31.488 37.824 50.432 86.336 50.432 139.2 0 120.128-97.664 217.856-217.856 217.856s-217.984-97.728-217.984-217.856c0-120.128 97.792-217.856 217.984-217.856 42.944 0 82.944 12.672 116.672 34.24l75.648-79.168c6.656-6.912 15.424-10.368 24.32-10.368 8.448 0 16.832 3.008 23.36 9.344 13.376 12.8 13.888 34.176 1.024 47.616zM661.632 368.064c-83.008 0-150.464 67.52-150.464 150.464 0 82.944 67.456 150.4 150.464 150.4 82.944 0 150.464-67.456 150.464-150.4-0.064-82.944-67.52-150.464-150.464-150.464z"  horiz-adv-x="1024" />

    
    <glyph glyph-name="xiangzuo" unicode="&#58887;" d="M708.389 780.749l-392.775-399.872 392.775-399.872v66.253l-333.635 333.635 333.635 333.635z"  horiz-adv-x="1024" />

    
    <glyph glyph-name="QQ" unicode="&#58948;" d="M877.519 224.305c-5.754 81.481-59.026 149.772-89.819 185.1 4.267 10.264 14.677 69.754-25.502 110.348 0.073 0.975 0.073 1.95 0.073 2.877 0 160.085-111.006 275.334-250.27 275.846-139.264-0.536-250.27-115.761-250.27-275.846 0-0.951 0-1.926 0.073-2.877-40.18-40.594-29.745-100.084-25.502-110.348-30.769-35.328-84.041-103.619-89.819-185.125-1.048-21.431 2.194-52.638 12.361-66.511 12.434-16.92 46.543 3.413 70.924 57.442 6.778-25.039 22.43-63.269 57.88-111.762-59.319-13.897-76.215-73.947-56.271-106.789 14.068-23.113 46.275-42.13 101.79-42.13 98.767 0 142.385 27.234 161.865 46.226 3.95 4.145 9.679 6.12 16.969 6.144 7.29 0 13.019-1.999 16.969-6.144 19.48-18.993 63.098-46.226 161.841-46.226 55.54 0 87.723 19.017 101.79 42.155 19.968 32.817 3.048 92.867-56.222 106.764 35.426 48.518 51.102 86.723 57.88 111.762 24.381-54.053 58.466-74.362 70.9-57.442 10.191 13.897 13.41 45.105 12.361 66.511z"  horiz-adv-x="1024" />

    
    <glyph glyph-name="shezhi" unicode="&#58899;" d="M807.276 207.778c30.693 52.758 86.872 80.467 139.875 74.194 7.754 32.98 11.863 67.364 11.863 102.708 0 31.18-3.197 61.613-9.272 90.993-53.672-7.1-110.872 20.867-141.773 74.48-31.4 54.476-26.276 119.175 8.236 162.065-47.402 44.045-104.38 77.922-167.466 98.17-19.57-51.918-73.394-89.213-136.739-89.213s-117.17 37.296-136.74 89.212c-62.492-20.057-118.988-53.492-166.123-96.935 34.343-43.029 39.207-107.752 7.587-162.104-31.12-53.493-88.444-81.229-142.091-73.904-6.316-29.927-9.647-60.956-9.647-92.764 0-34.716 3.958-68.509 11.447-100.95 53.036 6.072 109.115-21.866 139.6-74.755 29.954-51.973 26.674-113.255-3.66-156.022 47.441-42.877 104.121-75.726 166.7-95.19 22.135 47.161 73.316 80.19 132.927 80.19 59.61 0 110.792-33.029 132.927-80.19 61.995 19.282 118.198 51.702 165.369 93.994-30.153 42.888-33.183 104.176-3.02 156.021zM512 190.311c-107.347 0-194.369 87.022-194.369 194.368S404.653 579.05 512 579.05s194.369-87.023 194.369-194.37S619.347 190.311 512 190.311z"  horiz-adv-x="1024" />

    
    <glyph glyph-name="ERP_gouwuche" unicode="&#58952;" d="M771.072 722.432h182.272c17.408 0 31.232-17.92 26.624-34.816l-87.552-326.656c-2.56-9.728-16.384-20.48-26.624-20.48h-94.72V396.288H844.8l73.216 271.36h-146.432V722.432h-0.512m0-497.664h95.744c39.424 0 39.424-54.784 0-54.784h-95.744v54.784m0-291.328v54.784c23.04 0 41.984 18.944 41.984 41.984 0 23.04-18.944 41.984-41.984 41.984v54.784c53.248 0 96.768-43.52 96.768-96.768 0-53.76-43.52-96.768-96.768-96.768M380.928 722.432h390.144v-54.784H380.928V722.432m390.144-381.44H380.928V396.288h390.144v-55.296m-390.144-116.224h390.144v-54.784H380.928v54.784m390.144-97.792V71.68c-23.04 0-41.984-18.944-41.984-41.984 0-23.04 18.944-41.984 41.984-41.984v-54.784c-53.248 0-96.768 43.52-96.768 96.768 0 53.76 43.52 97.28 96.768 97.28M380.928-66.56v54.784c23.04 0 41.984 18.944 41.984 41.984 0 23.04-18.944 41.984-41.984 41.984v54.784c53.248 0 96.768-43.52 96.768-96.768 0-53.76-43.52-96.768-96.768-96.768M57.856 833.024h127.488c11.264 0 24.576-11.264 27.136-22.528l16.896-88.064h151.552v-54.784H240.128l52.736-271.36h88.576v-54.784H303.104l22.528-116.224h55.296v-54.784H303.104c-11.264 0-25.088 11.264-27.136 22.528L162.816 777.728H57.856c-38.912 0-39.424 55.296 0 55.296m323.072-706.048V71.68c-23.04 0-41.984-18.944-41.984-41.984 0-23.04 18.944-41.984 41.984-41.984v-54.784c-53.248 0-96.768 43.52-96.768 96.768 0 53.76 43.52 97.28 96.768 97.28m0 0z"  horiz-adv-x="1024" />

    
    <glyph glyph-name="wo-copy" unicode="&#58982;" d="M756.053 273.294c65.195 65.195 101.149 151.893 101.149 244.053s-35.954 178.859-101.149 244.053c-65.195 65.195-151.893 101.149-244.053 101.149s-178.859-35.954-244.053-101.149c-65.195-65.195-101.149-151.893-101.149-244.053s35.954-178.859 101.149-244.053c34.361-34.361 74.638-60.53 118.557-77.597-48.355-17.749-92.729-45.966-130.275-83.399-48.583-48.583-81.579-108.658-96.37-173.966-3.186-14.222 7.737-27.762 22.301-27.762 10.695 0 19.911 7.395 22.301 17.863 31.971 139.378 157.013 243.712 305.949 243.712 2.048 0 4.21 0 6.258-0.114l0.341 0.341c90.226 1.138 174.99 36.864 239.047 100.921zM211.854 517.347c0 165.433 134.713 300.146 300.146 300.146s300.146-134.599 300.146-300.146c0-163.157-130.845-296.277-293.205-300.032-3.413 0.114-6.827 0.114-10.24 0.114-1.707 0-3.299 0-5.006-0.114-161.678 4.551-291.84 137.33-291.84 300.032zM860.843-61.781c-15.019 66.105-48.469 126.749-97.963 175.559-5.575 5.461-11.264 10.809-17.181 15.929-9.102 7.851-22.642 7.395-31.175-1.024-9.443-9.443-8.761-24.803 1.251-33.451 49.379-42.894 85.333-101.035 100.466-166.912 2.389-10.354 11.605-17.749 22.187-17.749 14.677-0.114 25.6 13.426 22.414 27.648zM669.013 436.11c-8.306 0-16.043-4.437-20.025-11.833-27.193-49.835-80.099-83.741-140.743-83.741s-113.55 33.906-140.743 83.741c-3.982 7.282-11.719 11.833-20.025 11.833-17.294 0-28.103-18.546-19.797-33.678 34.93-63.943 102.741-107.406 180.679-107.406s145.749 43.463 180.679 107.406c8.078 15.133-2.731 33.678-20.025 33.678z"  horiz-adv-x="1024" />

    
    <glyph glyph-name="less" unicode="&#58894;" d="M509.928 508.84c7.24 7.991 17.58 7.898 24.782-0.333l270.568-309.222c7.759-8.867 21.237-9.765 30.103-2.007 8.867 7.759 9.766 21.237 2.007 30.103l-270.568 309.222c-24 27.429-64.127 27.792-88.507 0.89l-280.787-309.835c-7.912-8.73-7.249-22.221 1.482-30.133 8.73-7.912 22.221-7.249 30.133 1.482l280.787 309.833z"  horiz-adv-x="1024" />

    
    <glyph glyph-name="more_unfold" unicode="&#58900;" d="M478.312 251.84c24.38-26.901 64.507-26.538 88.507 0.89l270.57 309.222c7.758 8.867 6.86 22.344-2.008 30.103-8.866 7.759-22.344 6.86-30.103-2.007l-270.568-309.221c-7.202-8.231-17.541-8.325-24.782-0.335l-280.788 309.834c-7.912 8.73-21.403 9.394-30.133 1.482s-9.394-21.403-1.482-30.134l280.786-309.833z"  horiz-adv-x="1024" />

    
    <glyph glyph-name="chaoshi" unicode="&#59160;" d="M228.574 203.248h569.431v81.267s8.092 0.279 11.759 0h47.614v-224.233c0-18.816-24.216-42.82-45.661-42.82H214.941c-21.585 0-45.661 24.004-45.661 42.82V284.515h59.292l0.002-81.267z m581.189 485.857H216.675c-19.571 0-35.576 14.486-35.576 32.424 0 17.878 15.924 32.364 35.576 32.364h593.088c19.731 0 35.735-14.506 35.735-32.364 0-17.958-16.003-32.424-35.735-32.424z m44.644-53.056l2.949-1.94h-2.691l-0.258 1.94z m-29.756-288.482c-57.3 0-103.797 45.433-103.797 101.562 0-56.128-46.497-101.562-103.797-101.562-57.28 0-103.797 45.433-103.797 101.562 0-56.128-46.497-101.562-103.797-101.562S305.666 393 305.666 449.129c0-56.128-46.497-101.562-103.797-101.562S98.071 393 98.071 449.128l71.131 185.923h685.405l73.762-185.923c0.079-56.128-46.418-101.561-103.718-101.561z"  horiz-adv-x="1024" />

    
    <glyph glyph-name="wode" unicode="&#58926;" d="M512 237.714286c161.572571 0 292.571429 130.998857 292.571429 292.571428S673.572571 822.857143 512 822.857143 219.428571 691.858286 219.428571 530.285714s130.998857-292.571429 292.571429-292.571428z m224.060952 3.535238A364.129524 364.129524 0 0 0 512 164.571429a364.129524 364.129524 0 0 0-224.060952 76.678095C170.471619 161.158095 97.52381 23.478857 97.52381-128H24.380952c0 174.275048 82.919619 328.216381 209.603048 420.668952A364.251429 364.251429 0 0 0 146.285714 530.285714C146.285714 732.257524 310.02819 896 512 896c201.97181 0 365.714286-163.742476 365.714286-365.714286a364.251429 364.251429 0 0 0-87.698286-237.616762C916.72381 200.216381 999.619048 46.275048 999.619048-128h-73.142858c0 151.503238-73.020952 289.231238-190.415238 369.249524zM926.47619-128c0 155.964952-77.360762 297.301333-200.850285 376.124952l39.375238 61.659429C905.679238 219.964952 999.619048 57.514667 999.619048-128h-73.142858zM365.714286 530.285714c0-80.871619 66.438095-146.285714 148.23619-146.285714 81.749333 0 148.21181 65.414095 148.21181 146.285714h-48.761905c0-53.784381-44.446476-97.52381-99.474286-97.523809C458.922667 432.761905 414.47619 476.501333 414.47619 530.285714h-48.761904z"  horiz-adv-x="1024" />

    
    <glyph glyph-name="fenxiang" unicode="&#58916;" d="M972.8 346.0864v-294.7584A128.0768 128.0768 0 0 0 844.8-76.8H179.2a128 128 0 0 0-128 128V716.8c0 70.7328 57.1904 128 127.872 128h202.3168a25.6 25.6 0 0 1 0 51.2H179.072A179.072 179.072 0 0 1 0 716.8v-665.6a179.2 179.2 0 0 1 179.2-179.2h665.6c98.944 0 179.2 80.2816 179.2 179.328V346.0864a25.6 25.6 0 0 1-51.2 0zM960 768c-353.4592 0-640-286.5408-640-640a25.6 25.6 0 0 1 51.2 0c0 325.1968 263.6032 588.8 588.8 588.8a25.6 25.6 0 0 1 0 51.2zM720.1024 833.8432l256-102.4a25.6 25.6 0 0 1 18.9952 47.5136l-256 102.4a25.6 25.6 0 0 1-18.9952-47.5136zM808.8064 547.5328l194.6368 189.312a25.6 25.6 0 1 1-35.6864 36.7104L773.12 584.2432a25.6 25.6 0 1 1 35.6864-36.7104z"  horiz-adv-x="1024" />

    
    <glyph glyph-name="kefu" unicode="&#58917;" d="M55.351351 342.597189v-110.924108a83.027027 83.027027 0 0 1 166.054054 0v110.924108a83.027027 83.027027 0 0 1-166.054054 0z m763.101406-211.552865A137.852541 137.852541 0 0 0 774.918919 231.673081v110.924108A138.378378 138.378378 0 0 0 912.328649 480.864865C898.131027 681.928649 730.499459 840.648649 525.837838 840.648649 321.148541 840.648649 153.544649 681.928649 139.347027 480.864865A138.461405 138.461405 0 0 0 276.756757 342.597189v-110.924108a138.378378 138.378378 0 0 0-276.756757 0v110.924108a138.378378 138.378378 0 0 0 83.303784 126.865297C91.883243 706.476973 286.72 896 525.837838 896s433.954595-189.523027 442.534054-426.537514A138.461405 138.461405 0 0 0 1051.675676 342.597189v-110.924108a138.378378 138.378378 0 0 0-184.790487-130.269405 470.763243 470.763243 0 0 0-188.858811-121.21946A96.809514 96.809514 0 0 0 580.912432-114.162162h-82.528864c-53.690811 0-97.113946 43.174054-97.113946 96.864865 0 53.607784 43.284757 96.864865 97.141621 96.864865h82.473514c34.954378 0 65.536-18.265946 82.639567-45.803244a415.273514 415.273514 0 0 1 154.900757 97.28zM830.27027 342.597189v-110.924108a83.027027 83.027027 0 0 1 166.054054 0v110.924108a83.027027 83.027027 0 0 1-166.054054 0zM498.438919-58.810811h82.473513c23.302919 0 41.79027 18.487351 41.790271 41.513514 0 23.053838-18.570378 41.513514-41.790271 41.513513h-82.473513c-23.302919 0-41.79027-18.487351-41.79027-41.513513 0-23.053838 18.570378-41.513514 41.79027-41.513514z"  horiz-adv-x="1051" />

    
    <glyph glyph-name="shuoming" unicode="&#58920;" d="M481.834667 350.165333A42.538667 42.538667 0 0 0 512 362.666667a128 128 0 1 1-128 128 42.666667 42.666667 0 0 0-85.333333 0 213.333333 213.333333 0 1 0 256-209.066667v-46.933333a42.666667 42.666667 0 0 0-85.333334 0v85.333333c0 11.776 4.778667 22.442667 12.501334 30.165333zM512-128C229.248-128 0 101.248 0 384S229.248 896 512 896s512-229.248 512-512-229.248-512-512-512z m0 85.333333c235.648 0 426.666667 191.018667 426.666667 426.666667S747.648 810.666667 512 810.666667 85.333333 619.648 85.333333 384s191.018667-426.666667 426.666667-426.666667z m0 106.666667a42.666667 42.666667 0 1 0 0 85.333333 42.666667 42.666667 0 0 0 0-85.333333z"  horiz-adv-x="1024" />

    
    <glyph glyph-name="gerenzhongxin-wodefuwu" unicode="&#58940;" d="M158.438892 44.078699s193.509281 102.080584 225.211326 116.156292c31.702045 14.075708 91.555505 24.600787 151.282158-21.176966 59.853461-42.227124 137.20645-24.600787 151.282157-24.600787 14.075708 0 17.626337-10.525079 17.626337-14.075708 0-7.101258-10.525079-21.176966-31.702044-28.151415-59.853461-14.075708-112.605663 3.550629-137.20645 10.525079-3.550629 0-10.525079-21.176966 14.075708-28.151416 31.702045-10.525079 126.681371-31.702045 225.211326 42.227123 66.82791 49.328382 102.080584 0 80.903618-21.176965-38.676495-42.227124-154.832787-119.706921-253.362742-116.156292-109.055034 3.550629-172.459124 31.702045-204.161168 31.702044-28.151416 0-144.307708-17.626337-165.357866-17.626337-28.151416 0.126808-87.878068 56.42964-73.80236 70.505348zM534.171527 173.296233c6.97445-4.945519 14.075708-9.003381 21.430582-12.427201l302.94474 302.94474c102.080584 102.207392 102.080584 259.322726 7.862107 361.40331-7.862107 7.862107-15.724214 15.724214-31.448428 23.586321C732.879943 903.838153 593.517755 884.816926 508.049042 796.431625 423.848411 885.197351 381.621287 896.610087 324.30399 895.976046 262.802024 896.610087 190.64817 872.389725 151.464442 825.217082c-47.172643-47.172643-78.621071-109.942691-78.621071-180.701655S96.429693 510.986414 143.602335 463.813772l266.423984-260.717616c33.096935 7.228066 78.621071 5.072327 124.145208-29.799923z"  horiz-adv-x="1024" />

    
    <glyph glyph-name="gerenzhongxin" unicode="&#58884;" d="M369.08 357.28999999999996a16 16 0 0 1 10.73 27.88 197.67 197.67 0 0 0-65.15 146.21c0 108.79 88.52 197.33 197.33 197.33s197.33-88.54 197.33-197.33a197.61 197.61 0 0 0-65.17-146.21 16 16 0 1 1 21.46-23.75 229.68 229.68 0 0 1 75.71 170c0 126.46-102.87 229.33-229.33 229.33S282.67 657.83 282.67 531.37a229.74 229.74 0 0 1 75.69-170 16 16 0 0 1 10.72-4.08zM841.88 110.75C779 237.08000000000004 652.65 315.58000000000004 512 315.58000000000004s-267-78.5-329.92-204.88A60.62 60.62 0 0 1 176 84v-60.75a16 16 0 0 1 16-16h640a16 16 0 0 1 16 16V84a60.55 60.55 0 0 1-6.12 26.75zM816 39.289999999999964H208V84a28.19 28.19 0 0 0 2.77 12.46C268.17 211.91999999999996 383.6 283.58000000000004 512 283.58000000000004s243.83-71.66 301.21-187.08A27.92 27.92 0 0 0 816 84zM564.25 461.83c-36.25-19.71-68.12-19.67-104.33 0a16 16 0 1 1-15.29-28.08c22.58-12.29 45.27-18.5 67.4-18.5s44.85 6.21 67.48 18.46a16 16 0 0 1-15.25 28.17z"  horiz-adv-x="1024" />

    
    <glyph glyph-name="dizhiguanli" unicode="&#58943;" d="M821.653333 262.186667L576.533333-21.333333a85.333333 85.333333 0 0 0-129.066666-0.064L198.634667 266.048c-1.152 1.322667-2.133333 2.773333-2.88 4.266667A361.088 361.088 0 0 0 149.333333 448c0 200.298667 162.368 362.666667 362.666667 362.666667s362.666667-162.368 362.666667-362.666667c0-63.744-16.490667-125.162667-47.381334-179.370667a21.269333 21.269333 0 0 0-5.632-6.421333zM792.32 293.546667A318.442667 318.442667 0 0 1 832 448c0 176.725333-143.274667 320-320 320-176.725333 0-320-143.274667-320-320 0-55.317333 14.037333-108.522667 40.384-155.733333l247.317333-285.738667a42.666667 42.666667 0 0 1 64.554667 0.021333L792.32 293.546667zM512 298.666667a149.333333 149.333333 0 1 0 0 298.666666 149.333333 149.333333 0 0 0 0-298.666666z m0 42.666666a106.666667 106.666667 0 1 1 0 213.333334 106.666667 106.666667 0 0 1 0-213.333334z"  horiz-adv-x="1024" />

    
    <glyph glyph-name="shouhuodizhiyebianji" unicode="&#58949;" d="M896 399.104a25.6 25.6 0 0 0 51.2 0V128a179.2 179.2 0 0 0-179.2-179.2H256a179.2 179.2 0 0 0-179.2 179.2V640a179.2 179.2 0 0 0 179.2 179.2h313.1392a25.6 25.6 0 0 0 0-51.2H256a128 128 0 0 1-128-128v-512a128 128 0 0 1 128-128h512a128 128 0 0 1 128 128V399.104z m-5.9392 373.5296a25.6 25.6 0 1 0 37.4784-34.8672L547.2 328.9088a25.6 25.6 0 0 0-37.4784 34.8672L890.0608 772.6336z"  horiz-adv-x="1024" />

    
    <glyph glyph-name="pingjia" unicode="&#58963;" d="M403.20055 57.436386H104.082008c-55.364959 0-100.409874 45.041846-100.409874 100.411921V702.947146c0 55.368028 45.044916 100.412944 100.409874 100.412944h815.039851c26.774807 0 51.978838-10.458189 70.967309-29.446659 18.9854-18.984377 29.441543-44.188408 29.441542-70.967308v-545.098839c0-55.370075-45.044916-100.411921-100.411921-100.411921h-308.444954l-107.355053-103.673198-100.118232 103.674221zM104.082008 754.050034c-28.176736 0-51.099818-22.925129-51.099818-51.102888v-545.098839c0-28.176736 22.922059-51.104935 51.099818-51.104935h320.048224l80.404238-83.253122 86.216617 83.261308h328.367702c28.176736 0 51.101865 22.920012 51.101865 51.097772V702.947146c0 28.177759-22.924105 51.102888-51.101865 51.102888H104.082008z m604.64605-371.667881c-29.108968 0-52.792367 23.683399-52.792366 52.79646 0 29.109991 23.683399 52.792367 52.792366 52.792367 29.109991 0 52.792367-23.682375 52.792367-52.792367 0-29.113061-23.682375-52.79646-52.792367-52.79646z m-205.065445 0c-29.109991 0-52.792367 23.683399-52.792367 52.79646 0 29.109991 23.682375 52.792367 52.792367 52.792367 29.109991 0 52.792367-23.682375 52.792367-52.792367 0-29.113061-23.681352-52.79646-52.792367-52.79646z m-201.681372 0c-29.109991 0-52.792367 23.683399-52.792367 52.79646 0 29.109991 23.682375 52.792367 52.792367 52.792367 29.109991 0 52.791343-23.682375 52.791343-52.792367 0-29.113061-23.682375-52.79646-52.791343-52.79646z"  horiz-adv-x="1024" />

    
    <glyph glyph-name="xinyongqiazhifu" unicode="&#59009;" d="M894.509511 646.394311H330.752a37.660444 37.660444 0 0 1-37.546667-37.762844v-342.448356a37.660444 37.660444 0 0 1 37.546667-37.762844h563.757511a37.660444 37.660444 0 0 1 37.558045 37.762844V608.631467a37.660444 37.660444 0 0 1-37.558045 37.762844zM293.216711 562.414933H932.067556v-97.655466H293.216711zM688.685511 507.721956H124.928a37.660444 37.660444 0 0 1-37.546667-37.762845v-342.448355a37.660444 37.660444 0 0 1 37.546667-37.762845h563.757511a37.660444 37.660444 0 0 1 37.546667 37.762845V469.959111a37.660444 37.660444 0 0 1-37.546667 37.762845zM87.381333 423.742578h638.850845v-97.655467H87.381333zM213.595022 203.025067a58.595556 58.254222 90 1 1 116.508445 0 58.595556 58.254222 90 1 1-116.508445 0ZM155.3408 203.025067a58.595556 58.254222 90 1 1 116.508444 0 58.595556 58.254222 90 1 1-116.508444 0ZM894.509511 661.048889H720.406756c-8.044089 0-14.563556-6.5536-14.563556-14.6432s6.519467-14.654578 14.563556-14.654578h174.102755c12.686222 0 22.994489-10.376533 22.994489-23.131022v-31.561956H307.768889V608.620089c0 12.754489 10.308267 23.131022 22.994489 23.131022H671.857778c8.044089 0 14.552178 6.564978 14.552178 14.654578S679.913244 661.048889 671.869156 661.048889h-341.105778c-28.740267 0-52.1216-23.517867-52.1216-52.417422v-86.254934H124.928c-28.728889 0-52.110222-23.517867-52.110222-52.417422V232.334222c0-8.100978 6.519467-14.654578 14.563555-14.654578 8.044089 0 14.563556 6.564978 14.563556 14.654578v79.086934h609.723733v-183.9104c0-12.743111-10.308267-23.108267-22.983111-23.108267H124.928a23.074133 23.074133 0 0 0-22.983111 23.108267v55.990044c0 8.0896-6.519467 14.6432-14.563556 14.6432-8.044089 0-14.563556-6.5536-14.563555-14.6432v-55.990044c0-28.899556 23.381333-52.406044 52.110222-52.406045h563.757511c28.728889 0 52.110222 23.506489 52.110222 52.406045V469.959111c0 28.899556-23.381333 52.417422-52.110222 52.417422H307.780267v25.383823h609.735111v-68.357689H772.846933c-8.044089 0-14.563556-6.5536-14.563555-14.6432s6.519467-14.654578 14.563555-14.654578h144.668445v-183.9104a23.096889 23.096889 0 0 0-22.994489-23.131022H774.781156c-8.044089 0-14.552178-6.5536-14.552178-14.6432s6.508089-14.6432 14.552178-14.6432h119.728355c28.728889 0 52.1216 23.506489 52.1216 52.417422V608.620089C946.631111 637.531022 923.249778 661.048889 894.509511 661.048889z m-182.840889-191.089778v-31.573333H178.642489c-8.044089 0-14.563556-6.5536-14.563556-14.6432s6.519467-14.654578 14.563556-14.654578h533.026133v-68.357689H101.944889v68.357689h28.16c8.044089 0 14.563556 6.564978 14.563555 14.654578s-6.519467 14.6432-14.563555 14.6432H101.944889v31.573333c0 12.743111 10.308267 23.119644 22.983111 23.119645h563.757511a23.096889 23.096889 0 0 0 22.983111-23.119645zM242.744889 135.930311a72.100978 72.100978 0 0 1 29.104355-6.155378c40.152178 0 72.817778 32.8704 72.817778 73.250134 0 40.402489-32.6656 73.250133-72.817778 73.250133-10.069333 0-19.979378-2.127644-29.104355-6.132622a72.078222 72.078222 0 0 1-29.149867 6.132622c-40.152178 0-72.817778-32.847644-72.817778-73.250133 0-40.379733 32.6656-73.250133 72.817778-73.250134 10.365156 0 20.218311 2.218667 29.149867 6.155378z m72.795022 67.094756c0-24.223289-19.603911-43.9296-43.690667-43.9296h-0.034133a73.056711 73.056711 0 0 1 14.609067 43.9296 73.079467 73.079467 0 0 1-14.609067 43.952355h0.034133c24.098133 0 43.690667-19.706311 43.690667-43.952355z m-145.624178 0c0 24.246044 19.592533 43.952356 43.690667 43.952355 24.086756 0 43.690667-19.706311 43.690667-43.952355 0-24.223289-19.603911-43.9296-43.690667-43.9296-24.098133-0.011378-43.690667 19.706311-43.690667 43.9296zM655.633067 248.4224c8.032711 0 14.563556 6.5536 14.563555 14.6432s-6.530844 14.6432-14.563555 14.6432H440.103822c-8.044089 0-14.563556-6.5536-14.563555-14.6432s6.519467-14.6432 14.563555-14.6432h215.529245z"  horiz-adv-x="1024" />

    
    <glyph glyph-name="qianbao" unicode="&#58957;" d="M924.81 549.28V675.172c0 19.968-16.104 35.968-35.985 35.968H97.545c-19.88 0-35.985-16.105-35.985-35.968V99.67c0-19.97 16.104-35.968 35.985-35.968h791.28c19.88 0 35.985 16.105 35.985 35.968V261.53H583.194c-19.917 0-36.055 16.088-36.055 35.863V513.417c0 19.81 16.138 35.862 36.055 35.862H924.81z m-323.718-89.923c0 19.864 16.157 35.97 35.81 35.97h288.066c19.776 0 35.812-15.965 35.812-35.97v-107.906c0-19.863-16.16-35.967-35.812-35.967H636.901c-19.776 0-35.81 15.964-35.81 35.967V459.357z m89.92-89.922c19.865 0 35.97 16.105 35.97 35.97 0 19.863-16.105 35.968-35.97 35.968s-35.969-16.105-35.969-35.969c0-19.863 16.105-35.969 35.97-35.969z"  horiz-adv-x="1024" />

    
    <glyph glyph-name="qianbao-" unicode="&#58891;" d="M954.971 92.691c0-41.608-31.427-75.332-70.198-75.332H71.22c-38.771 0-70.21 33.724-70.21 75.332V742.478c0 41.595 31.439 75.332 70.21 75.332h813.553c38.771 0 70.198-33.736 70.198-75.332v-649.787zM121.236 402.725v-8.688c0-41.596 32.73-75.342 73.09-75.342-40.359 0-73.09 37.621-73.09 84.03zM933.915 694.336H56.283c-29.983 0-54.28 25.037-54.28 55.936 0 3.401 0.342 6.712 0.91 9.946a94.93 94.93 0 0 1-2.908-23.282v-120.029c0 41.607 32.708 75.343 73.09 75.343h849.101c40.374 0 73.089-33.736 73.089-75.343M922.196 692.25H73.095c-40.383 0-73.09-33.736-73.09-75.343v-521.811c0-46.396 32.708-84.019 73.09-84.019h849.101c40.374 0 73.089 37.622 73.089 84.019V616.907c0 41.607-32.715 75.343-73.089 75.343zM918.951 677.159H55.377c-29.508 0-53.403 24.407-53.403 54.545 0 3.301 0.182 24.175 0.736 27.322-2.706-6.259-2.706-32.466-2.706-40.348v-116.994c0 40.547 33.078 65.253 71.92 73.443H907.401c39.741 0 71.943-32.896 71.943-73.443M913.508 675.127H78.019c-39.73 0-78.014-32.366-78.014-72.935v-508.697c0-45.228 38.284-82.418 78.014-82.418h835.489c39.726 0 71.92 36.671 71.92 81.91V601.684c0 40.547-32.195 73.443-71.92 73.443zM898.13 747.611c0-6.314-4.968-11.425-11.089-11.425H72.654c-6.128 0-11.084 5.111-11.084 11.425 0 6.303 4.956 11.415 11.084 11.415H887.041c6.121 0 11.089-5.112 11.089-11.415zM1026.041 231.206c0-1.65-1.35-3-3-3H745.543c-1.65 0-3 1.35-3 3V459.58c0 1.65 1.35 3 3 3H1023.041c1.65 0 3-1.35 3-3v-228.374zM1013.865 243.748c0-1.65-1.35-3-3-3H749.859c-1.65 0-3 1.35-3 3V455.396c0 1.65 1.35 3 3 3h261.006c1.65 0 3-1.35 3-3v-211.648zM887.742 343.366c0-22.287-17.529-40.358-39.167-40.358-21.614 0-39.16 18.071-39.16 40.358 0 22.289 17.546 40.36 39.16 40.36 21.638 0.001 39.167-18.071 39.167-40.36zM872.514 343.091c0-13.61-10.726-24.649-23.938-24.649-13.203 0-23.922 11.039-23.922 24.649 0 13.623 10.719 24.674 23.922 24.674 13.212 0 23.938-11.051 23.938-24.674zM79.844 106.113c0-5.674-4.542-10.277-10.156-10.277-5.602 0-10.151 4.604-10.151 10.277V563.985c0 5.686 4.549 10.289 10.151 10.289 5.614 0 10.156-4.603 10.156-10.289v-457.872zM79.844 614.49c0-6.734-5.282-12.177-11.794-12.177-6.531 0-11.813 5.443-11.813 12.177 0 6.711 5.282 12.154 11.813 12.154 6.512 0 11.794-5.443 11.794-12.154z"  horiz-adv-x="1026" />

    


  </font>
</defs>
</svg>
